<?xml version="1.0" encoding="UTF-8" standalone="no"?>
<!DOCTYPE svg PUBLIC "-//W3C//DTD SVG 1.1//EN"
 "http://www.w3.org/Graphics/SVG/1.1/DTD/svg11.dtd">
<!-- Generated by graphviz version 2.40.1 (20161225.0304)
 -->
<!-- Title: SecKeySS.h Pages: 1 -->
<svg width="391pt" height="196pt"
 viewBox="0.00 0.00 391.00 196.00" xmlns="http://www.w3.org/2000/svg" xmlns:xlink="http://www.w3.org/1999/xlink">
<g id="graph0" class="graph" transform="scale(1 1) rotate(0) translate(4 192)">
<title>SecKeySS.h</title>
<!-- Node0 -->
<g id="node1" class="node">
<title>Node0</title>
<polygon fill="#bfbfbf" stroke="#000000" points="157,-168.5 157,-187.5 230,-187.5 230,-168.5 157,-168.5"/>
<text text-anchor="middle" x="193.5" y="-175.5" font-family="Helvetica,sans-Serif" font-size="10.00" fill="#000000">SecKeySS.h</text>
</g>
<!-- Node1 -->
<g id="node2" class="node">
<title>Node1</title>
<g id="a_node2"><a xlink:href="LinkedList_8h.html" target="_top" xlink:title="LinkedList.h">
<polygon fill="none" stroke="#000000" points="159,-112.5 159,-131.5 228,-131.5 228,-112.5 159,-112.5"/>
<text text-anchor="middle" x="193.5" y="-119.5" font-family="Helvetica,sans-Serif" font-size="10.00" fill="#000000">LinkedList.h</text>
</a>
</g>
</g>
<!-- Node0&#45;&gt;Node1 -->
<g id="edge1" class="edge">
<title>Node0&#45;&gt;Node1</title>
<path fill="none" stroke="#191970" d="M193.5,-168.2455C193.5,-160.9382 193.5,-150.6944 193.5,-141.7046"/>
<polygon fill="#191970" stroke="#191970" points="197.0001,-141.6426 193.5,-131.6427 190.0001,-141.6427 197.0001,-141.6426"/>
</g>
<!-- Node2 -->
<g id="node3" class="node">
<title>Node2</title>
<g id="a_node3"><a xlink:href="ListInterface_8h.html" target="_top" xlink:title="ListInterface.h">
<polygon fill="none" stroke="#000000" points="0,-56.5 0,-75.5 79,-75.5 79,-56.5 0,-56.5"/>
<text text-anchor="middle" x="39.5" y="-63.5" font-family="Helvetica,sans-Serif" font-size="10.00" fill="#000000">ListInterface.h</text>
</a>
</g>
</g>
<!-- Node1&#45;&gt;Node2 -->
<g id="edge2" class="edge">
<title>Node1&#45;&gt;Node2</title>
<path fill="none" stroke="#191970" d="M167.0265,-112.3733C141.6403,-103.1419 103.1355,-89.1402 75.078,-78.9375"/>
<polygon fill="#191970" stroke="#191970" points="76.2222,-75.6293 65.6281,-75.5011 73.8299,-82.2079 76.2222,-75.6293"/>
</g>
<!-- Node3 -->
<g id="node4" class="node">
<title>Node3</title>
<polygon fill="none" stroke="#bfbfbf" points="51.5,-.5 51.5,-19.5 95.5,-19.5 95.5,-.5 51.5,-.5"/>
<text text-anchor="middle" x="73.5" y="-7.5" font-family="Helvetica,sans-Serif" font-size="10.00" fill="#000000">vector</text>
</g>
<!-- Node1&#45;&gt;Node3 -->
<g id="edge8" class="edge">
<title>Node1&#45;&gt;Node3</title>
<path fill="none" stroke="#191970" d="M176.8148,-112.4456C162.6228,-103.8907 142.119,-90.4904 126.5,-76 110.7694,-61.406 95.7411,-41.9886 85.7316,-27.9978"/>
<polygon fill="#191970" stroke="#191970" points="88.5219,-25.8805 79.9217,-19.6928 82.7861,-29.8931 88.5219,-25.8805"/>
</g>
<!-- Node4 -->
<g id="node5" class="node">
<title>Node4</title>
<g id="a_node5"><a xlink:href="Node_8h.html" target="_top" xlink:title="Node.h">
<polygon fill="none" stroke="#000000" points="135.5,-56.5 135.5,-75.5 183.5,-75.5 183.5,-56.5 135.5,-56.5"/>
<text text-anchor="middle" x="159.5" y="-63.5" font-family="Helvetica,sans-Serif" font-size="10.00" fill="#000000">Node.h</text>
</a>
</g>
</g>
<!-- Node1&#45;&gt;Node4 -->
<g id="edge4" class="edge">
<title>Node1&#45;&gt;Node4</title>
<path fill="none" stroke="#191970" d="M187.5777,-112.2455C182.8973,-104.5367 176.2327,-93.5598 170.5711,-84.2348"/>
<polygon fill="#191970" stroke="#191970" points="173.5361,-82.3741 165.3545,-75.6427 167.5525,-86.007 173.5361,-82.3741"/>
</g>
<!-- Node5 -->
<g id="node6" class="node">
<title>Node5</title>
<polygon fill="none" stroke="#bfbfbf" points="201.5,-56.5 201.5,-75.5 255.5,-75.5 255.5,-56.5 201.5,-56.5"/>
<text text-anchor="middle" x="228.5" y="-63.5" font-family="Helvetica,sans-Serif" font-size="10.00" fill="#000000">iostream</text>
</g>
<!-- Node1&#45;&gt;Node5 -->
<g id="edge5" class="edge">
<title>Node1&#45;&gt;Node5</title>
<path fill="none" stroke="#191970" d="M199.5965,-112.2455C204.4145,-104.5367 211.2751,-93.5598 217.1032,-84.2348"/>
<polygon fill="#191970" stroke="#191970" points="220.1413,-85.9777 222.4733,-75.6427 214.2053,-82.2677 220.1413,-85.9777"/>
</g>
<!-- Node6 -->
<g id="node7" class="node">
<title>Node6</title>
<polygon fill="none" stroke="#bfbfbf" points="273.5,-56.5 273.5,-75.5 323.5,-75.5 323.5,-56.5 273.5,-56.5"/>
<text text-anchor="middle" x="298.5" y="-63.5" font-family="Helvetica,sans-Serif" font-size="10.00" fill="#000000">fstream</text>
</g>
<!-- Node1&#45;&gt;Node6 -->
<g id="edge6" class="edge">
<title>Node1&#45;&gt;Node6</title>
<path fill="none" stroke="#191970" d="M211.7896,-112.2455C228.2762,-103.4527 252.7352,-90.4079 271.4765,-80.4125"/>
<polygon fill="#191970" stroke="#191970" points="273.2435,-83.4368 280.42,-75.6427 269.9494,-77.2604 273.2435,-83.4368"/>
</g>
<!-- Node7 -->
<g id="node8" class="node">
<title>Node7</title>
<polygon fill="none" stroke="#bfbfbf" points="342,-56.5 342,-75.5 383,-75.5 383,-56.5 342,-56.5"/>
<text text-anchor="middle" x="362.5" y="-63.5" font-family="Helvetica,sans-Serif" font-size="10.00" fill="#000000">string</text>
</g>
<!-- Node1&#45;&gt;Node7 -->
<g id="edge7" class="edge">
<title>Node1&#45;&gt;Node7</title>
<path fill="none" stroke="#191970" d="M222.5245,-112.415C248.7264,-103.7577 288.5833,-90.5777 332.1896,-76.0984"/>
<polygon fill="#191970" stroke="#191970" points="333.4582,-79.3652 341.8452,-72.8915 331.2517,-72.722 333.4582,-79.3652"/>
</g>
<!-- Node2&#45;&gt;Node3 -->
<g id="edge3" class="edge">
<title>Node2&#45;&gt;Node3</title>
<path fill="none" stroke="#191970" d="M45.4223,-56.2455C50.1027,-48.5367 56.7673,-37.5598 62.4289,-28.2348"/>
<polygon fill="#191970" stroke="#191970" points="65.4475,-30.007 67.6455,-19.6427 59.4639,-26.3741 65.4475,-30.007"/>
</g>
</g>
</svg>
