<?xml version="1.0" encoding="UTF-8" standalone="no"?>
<!DOCTYPE svg PUBLIC "-//W3C//DTD SVG 1.1//EN"
 "http://www.w3.org/Graphics/SVG/1.1/DTD/svg11.dtd">
<!-- Generated by graphviz version 2.40.1 (20161225.0304)
 -->
<!-- Title: Node.h Pages: 1 -->
<svg width="383pt" height="252pt"
 viewBox="0.00 0.00 382.50 252.00" xmlns="http://www.w3.org/2000/svg" xmlns:xlink="http://www.w3.org/1999/xlink">
<g id="graph0" class="graph" transform="scale(1 1) rotate(0) translate(4 248)">
<title>Node.h</title>
<!-- Node1 -->
<g id="node1" class="node">
<title>Node1</title>
<polygon fill="#bfbfbf" stroke="#000000" points="195,-224.5 195,-243.5 243,-243.5 243,-224.5 195,-224.5"/>
<text text-anchor="middle" x="219" y="-231.5" font-family="Helvetica,sans-Serif" font-size="10.00" fill="#000000">Node.h</text>
</g>
<!-- Node2 -->
<g id="node2" class="node">
<title>Node2</title>
<g id="a_node2"><a xlink:href="LinkedList_8h.html" target="_top" xlink:title="LinkedList.h">
<polygon fill="none" stroke="#000000" points="116.5,-168.5 116.5,-187.5 185.5,-187.5 185.5,-168.5 116.5,-168.5"/>
<text text-anchor="middle" x="151" y="-175.5" font-family="Helvetica,sans-Serif" font-size="10.00" fill="#000000">LinkedList.h</text>
</a>
</g>
</g>
<!-- Node1&#45;&gt;Node2 -->
<g id="edge1" class="edge">
<title>Node1&#45;&gt;Node2</title>
<path fill="none" stroke="#191970" d="M199.1404,-217.645C187.3142,-207.9058 172.7108,-195.8795 162.709,-187.6427"/>
<polygon fill="#191970" stroke="#191970" points="197.211,-220.5902 207.1553,-224.2455 201.661,-215.1867 197.211,-220.5902"/>
</g>
<!-- Node3 -->
<g id="node3" class="node">
<title>Node3</title>
<g id="a_node3"><a xlink:href="LinkedList_8cpp.html" target="_top" xlink:title="LinkedList.cpp">
<polygon fill="none" stroke="#000000" points="179,-112.5 179,-131.5 259,-131.5 259,-112.5 179,-112.5"/>
<text text-anchor="middle" x="219" y="-119.5" font-family="Helvetica,sans-Serif" font-size="10.00" fill="#000000">LinkedList.cpp</text>
</a>
</g>
</g>
<!-- Node1&#45;&gt;Node3 -->
<g id="edge11" class="edge">
<title>Node1&#45;&gt;Node3</title>
<path fill="none" stroke="#191970" d="M219,-214.2702C219,-189.9985 219,-149.7725 219,-131.5249"/>
<polygon fill="#191970" stroke="#191970" points="215.5001,-214.4509 219,-224.4509 222.5001,-214.451 215.5001,-214.4509"/>
</g>
<!-- Node4 -->
<g id="node4" class="node">
<title>Node4</title>
<g id="a_node4"><a xlink:href="TestDocument_8cpp.html" target="_top" xlink:title="TestDocument.cpp">
<polygon fill="none" stroke="#000000" points="135,-.5 135,-19.5 235,-19.5 235,-.5 135,-.5"/>
<text text-anchor="middle" x="185" y="-7.5" font-family="Helvetica,sans-Serif" font-size="10.00" fill="#000000">TestDocument.cpp</text>
</a>
</g>
</g>
<!-- Node1&#45;&gt;Node4 -->
<g id="edge15" class="edge">
<title>Node1&#45;&gt;Node4</title>
<path fill="none" stroke="#191970" d="M234.4834,-216.5742C253.4239,-193.0515 281.4129,-149.7343 268,-112 253.7775,-71.9881 216.407,-36.2734 197.0333,-19.7335"/>
<polygon fill="#191970" stroke="#191970" points="231.7506,-214.386 228.0081,-224.2978 237.1149,-218.8832 231.7506,-214.386"/>
</g>
<!-- Node6 -->
<g id="node6" class="node">
<title>Node6</title>
<g id="a_node6"><a xlink:href="SSClass_8h.html" target="_top" xlink:title="SSClass.h">
<polygon fill="none" stroke="#000000" points="5,-56.5 5,-75.5 69,-75.5 69,-56.5 5,-56.5"/>
<text text-anchor="middle" x="37" y="-63.5" font-family="Helvetica,sans-Serif" font-size="10.00" fill="#000000">SSClass.h</text>
</a>
</g>
</g>
<!-- Node1&#45;&gt;Node6 -->
<g id="edge14" class="edge">
<title>Node1&#45;&gt;Node6</title>
<path fill="none" stroke="#191970" d="M184.9724,-227.8001C139.0099,-217.3175 59.3486,-191.1489 29,-132 19.6211,-113.7206 27.1524,-88.9527 32.6125,-75.5567"/>
<polygon fill="#191970" stroke="#191970" points="184.2735,-231.2298 194.7867,-229.9168 185.7494,-224.3871 184.2735,-231.2298"/>
</g>
<!-- Node8 -->
<g id="node8" class="node">
<title>Node8</title>
<g id="a_node8"><a xlink:href="Node_8cpp.html" target="_top" xlink:title="Node.cpp">
<polygon fill="none" stroke="#000000" points="315.5,-56.5 315.5,-75.5 374.5,-75.5 374.5,-56.5 315.5,-56.5"/>
<text text-anchor="middle" x="345" y="-63.5" font-family="Helvetica,sans-Serif" font-size="10.00" fill="#000000">Node.cpp</text>
</a>
</g>
</g>
<!-- Node1&#45;&gt;Node8 -->
<g id="edge12" class="edge">
<title>Node1&#45;&gt;Node8</title>
<path fill="none" stroke="#191970" d="M252.6225,-221.727C269.1494,-214.2095 288.2108,-203.0963 301,-188 330.254,-153.4687 340.6948,-97.953 343.8307,-75.6924"/>
<polygon fill="#191970" stroke="#191970" points="251.0656,-218.5863 243.2511,-225.7407 253.8215,-225.0209 251.0656,-218.5863"/>
</g>
<!-- Node2&#45;&gt;Node3 -->
<g id="edge2" class="edge">
<title>Node2&#45;&gt;Node3</title>
<path fill="none" stroke="#191970" d="M170.8596,-161.645C182.6858,-151.9058 197.2892,-139.8795 207.291,-131.6427"/>
<polygon fill="#191970" stroke="#191970" points="168.339,-159.1867 162.8447,-168.2455 172.789,-164.5902 168.339,-159.1867"/>
</g>
<!-- Node2&#45;&gt;Node4 -->
<g id="edge10" class="edge">
<title>Node2&#45;&gt;Node4</title>
<path fill="none" stroke="#191970" d="M154.995,-158.2601C162.2995,-122.1669 177.5594,-46.7656 183.011,-19.8279"/>
<polygon fill="#191970" stroke="#191970" points="151.4786,-157.9907 152.9254,-168.4862 158.3395,-159.3792 151.4786,-157.9907"/>
</g>
<!-- Node5 -->
<g id="node5" class="node">
<title>Node5</title>
<g id="a_node5"><a xlink:href="SecKeySS_8h.html" target="_top" xlink:title="SecKeySS.h">
<polygon fill="none" stroke="#000000" points="49.5,-112.5 49.5,-131.5 122.5,-131.5 122.5,-112.5 49.5,-112.5"/>
<text text-anchor="middle" x="86" y="-119.5" font-family="Helvetica,sans-Serif" font-size="10.00" fill="#000000">SecKeySS.h</text>
</a>
</g>
</g>
<!-- Node2&#45;&gt;Node5 -->
<g id="edge4" class="edge">
<title>Node2&#45;&gt;Node5</title>
<path fill="none" stroke="#191970" d="M132.0165,-161.645C120.7121,-151.9058 106.753,-139.8795 97.1924,-131.6427"/>
<polygon fill="#191970" stroke="#191970" points="129.8173,-164.3701 139.6779,-168.2455 134.3862,-159.0668 129.8173,-164.3701"/>
</g>
<!-- Node2&#45;&gt;Node6 -->
<g id="edge9" class="edge">
<title>Node2&#45;&gt;Node6</title>
<path fill="none" stroke="#191970" d="M106.368,-171.2344C82.5959,-165.1567 55.1979,-153.6676 40,-132 28.1441,-115.0971 31.4774,-89.3345 34.5015,-75.5277"/>
<polygon fill="#191970" stroke="#191970" points="105.7572,-174.6853 116.288,-173.5217 107.33,-167.8643 105.7572,-174.6853"/>
</g>
<!-- Node3&#45;&gt;Node4 -->
<g id="edge3" class="edge">
<title>Node3&#45;&gt;Node4</title>
<path fill="none" stroke="#191970" d="M213.1103,-102.5987C205.753,-78.363 193.456,-37.8551 187.8915,-19.5249"/>
<polygon fill="#191970" stroke="#191970" points="209.8472,-103.8988 216.1012,-112.4509 216.5454,-101.8654 209.8472,-103.8988"/>
</g>
<!-- Node5&#45;&gt;Node4 -->
<g id="edge8" class="edge">
<title>Node5&#45;&gt;Node4</title>
<path fill="none" stroke="#191970" d="M98.9459,-103.7753C108.8647,-90.1883 123.1557,-71.3991 137,-56 148.8838,-42.7816 163.84,-28.8202 173.8717,-19.7932"/>
<polygon fill="#191970" stroke="#191970" points="95.8481,-102.0871 92.8367,-112.2449 101.5254,-106.1821 95.8481,-102.0871"/>
</g>
<!-- Node5&#45;&gt;Node6 -->
<g id="edge5" class="edge">
<title>Node5&#45;&gt;Node6</title>
<path fill="none" stroke="#191970" d="M70.6878,-104.5004C62.3553,-94.9775 52.3647,-83.5596 45.4373,-75.6427"/>
<polygon fill="#191970" stroke="#191970" points="68.2457,-107.0245 77.4649,-112.2455 73.5138,-102.415 68.2457,-107.0245"/>
</g>
<!-- Node6&#45;&gt;Node4 -->
<g id="edge7" class="edge">
<title>Node6&#45;&gt;Node4</title>
<path fill="none" stroke="#191970" d="M71.9153,-52.7888C98.9383,-42.5639 135.714,-28.6488 159.8899,-19.5011"/>
<polygon fill="#191970" stroke="#191970" points="70.5563,-49.5608 62.4421,-56.3733 73.0336,-56.1078 70.5563,-49.5608"/>
</g>
<!-- Node7 -->
<g id="node7" class="node">
<title>Node7</title>
<g id="a_node7"><a xlink:href="SSClass_8cpp.html" target="_top" xlink:title="SSClass.cpp">
<polygon fill="none" stroke="#000000" points="0,-.5 0,-19.5 74,-19.5 74,-.5 0,-.5"/>
<text text-anchor="middle" x="37" y="-7.5" font-family="Helvetica,sans-Serif" font-size="10.00" fill="#000000">SSClass.cpp</text>
</a>
</g>
</g>
<!-- Node6&#45;&gt;Node7 -->
<g id="edge6" class="edge">
<title>Node6&#45;&gt;Node7</title>
<path fill="none" stroke="#191970" d="M37,-46.1575C37,-37.155 37,-26.9199 37,-19.6427"/>
<polygon fill="#191970" stroke="#191970" points="33.5001,-46.2455 37,-56.2455 40.5001,-46.2456 33.5001,-46.2455"/>
</g>
<!-- Node8&#45;&gt;Node4 -->
<g id="edge13" class="edge">
<title>Node8&#45;&gt;Node4</title>
<path fill="none" stroke="#191970" d="M308.0201,-53.057C278.7382,-42.8084 238.5115,-28.729 212.1461,-19.5011"/>
<polygon fill="#191970" stroke="#191970" points="306.9002,-56.3732 317.495,-56.3733 309.2127,-49.7662 306.9002,-56.3732"/>
</g>
</g>
</svg>
