<?xml version="1.0" encoding="UTF-8" standalone="no"?>
<!DOCTYPE svg PUBLIC "-//W3C//DTD SVG 1.1//EN"
 "http://www.w3.org/Graphics/SVG/1.1/DTD/svg11.dtd">
<!-- Generated by graphviz version 2.40.1 (20161225.0304)
 -->
<!-- Title: SSClass.h Pages: 1 -->
<svg width="200pt" height="84pt"
 viewBox="0.00 0.00 200.00 84.00" xmlns="http://www.w3.org/2000/svg" xmlns:xlink="http://www.w3.org/1999/xlink">
<g id="graph0" class="graph" transform="scale(1 1) rotate(0) translate(4 80)">
<title>SSClass.h</title>
<!-- Node11 -->
<g id="node1" class="node">
<title>Node11</title>
<polygon fill="#bfbfbf" stroke="#000000" points="57,-56.5 57,-75.5 121,-75.5 121,-56.5 57,-56.5"/>
<text text-anchor="middle" x="89" y="-63.5" font-family="Helvetica,sans-Serif" font-size="10.00" fill="#000000">SSClass.h</text>
</g>
<!-- Node12 -->
<g id="node2" class="node">
<title>Node12</title>
<g id="a_node2"><a xlink:href="SSClass_8cpp.html" target="_top" xlink:title="SSClass.cpp">
<polygon fill="none" stroke="#000000" points="0,-.5 0,-19.5 74,-19.5 74,-.5 0,-.5"/>
<text text-anchor="middle" x="37" y="-7.5" font-family="Helvetica,sans-Serif" font-size="10.00" fill="#000000">SSClass.cpp</text>
</a>
</g>
</g>
<!-- Node11&#45;&gt;Node12 -->
<g id="edge1" class="edge">
<title>Node11&#45;&gt;Node12</title>
<path fill="none" stroke="#191970" d="M73.0178,-48.7884C64.1222,-39.2085 53.3796,-27.6396 45.9539,-19.6427"/>
<polygon fill="#191970" stroke="#191970" points="70.573,-51.2992 79.9423,-56.2455 75.7025,-46.536 70.573,-51.2992"/>
</g>
<!-- Node13 -->
<g id="node3" class="node">
<title>Node13</title>
<g id="a_node3"><a xlink:href="TestDocument_8cpp.html" target="_top" xlink:title="TestDocument.cpp">
<polygon fill="none" stroke="#000000" points="92,-.5 92,-19.5 192,-19.5 192,-.5 92,-.5"/>
<text text-anchor="middle" x="142" y="-7.5" font-family="Helvetica,sans-Serif" font-size="10.00" fill="#000000">TestDocument.cpp</text>
</a>
</g>
</g>
<!-- Node11&#45;&gt;Node13 -->
<g id="edge2" class="edge">
<title>Node11&#45;&gt;Node13</title>
<path fill="none" stroke="#191970" d="M105.2896,-48.7884C114.3562,-39.2085 125.3054,-27.6396 132.8739,-19.6427"/>
<polygon fill="#191970" stroke="#191970" points="102.5637,-46.5767 98.2319,-56.2455 107.6478,-51.3884 102.5637,-46.5767"/>
</g>
</g>
</svg>
