<?xml version="1.0" encoding="UTF-8" standalone="no"?>
<!DOCTYPE svg PUBLIC "-//W3C//DTD SVG 1.1//EN"
 "http://www.w3.org/Graphics/SVG/1.1/DTD/svg11.dtd">
<!-- Generated by graphviz version 2.40.1 (20161225.0304)
 -->
<!-- Title: Node&lt; ItemType &gt; Pages: 1 -->
<svg width="583pt" height="303pt"
 viewBox="0.00 0.00 583.00 303.00" xmlns="http://www.w3.org/2000/svg" xmlns:xlink="http://www.w3.org/1999/xlink">
<g id="graph0" class="graph" transform="scale(1 1) rotate(0) translate(4 299)">
<title>Node&lt; ItemType &gt;</title>
<!-- Node0 -->
<g id="node1" class="node">
<title>Node0</title>
<polygon fill="#bfbfbf" stroke="#000000" points="271.5,-171.5 271.5,-294.5 370.5,-294.5 370.5,-171.5 271.5,-171.5"/>
<text text-anchor="middle" x="321" y="-282.5" font-family="Helvetica,sans-Serif" font-size="10.00" fill="#000000">Node&lt; ItemType &gt;</text>
<polyline fill="none" stroke="#000000" points="271.5,-275.5 370.5,-275.5 "/>
<text text-anchor="middle" x="321" y="-263.5" font-family="Helvetica,sans-Serif" font-size="10.00" fill="#000000"> </text>
<polyline fill="none" stroke="#000000" points="271.5,-256.5 370.5,-256.5 "/>
<text text-anchor="start" x="279.5" y="-244.5" font-family="Helvetica,sans-Serif" font-size="10.00" fill="#000000">+ Node()</text>
<text text-anchor="start" x="279.5" y="-233.5" font-family="Helvetica,sans-Serif" font-size="10.00" fill="#000000">+ Node()</text>
<text text-anchor="start" x="279.5" y="-222.5" font-family="Helvetica,sans-Serif" font-size="10.00" fill="#000000">+ Node()</text>
<text text-anchor="start" x="279.5" y="-211.5" font-family="Helvetica,sans-Serif" font-size="10.00" fill="#000000">+ setItem()</text>
<text text-anchor="start" x="279.5" y="-200.5" font-family="Helvetica,sans-Serif" font-size="10.00" fill="#000000">+ setNext()</text>
<text text-anchor="start" x="279.5" y="-189.5" font-family="Helvetica,sans-Serif" font-size="10.00" fill="#000000">+ getItem()</text>
<text text-anchor="start" x="279.5" y="-178.5" font-family="Helvetica,sans-Serif" font-size="10.00" fill="#000000">+ getNext()</text>
</g>
<!-- Node1 -->
<g id="node2" class="node">
<title>Node1</title>
<g id="a_node2"><a xlink:href="classNode.html" target="_top" xlink:title="{Node\&lt; SecKeySS\&lt; string \&gt; \&gt;\n||+ Node()\l+ Node()\l+ Node()\l+ setItem()\l+ setNext()\l+ getItem()\l+ getNext()\l}">
<polygon fill="none" stroke="#000000" points="0,-.5 0,-123.5 148,-123.5 148,-.5 0,-.5"/>
<text text-anchor="middle" x="74" y="-111.5" font-family="Helvetica,sans-Serif" font-size="10.00" fill="#000000">Node&lt; SecKeySS&lt; string &gt; &gt;</text>
<polyline fill="none" stroke="#000000" points="0,-104.5 148,-104.5 "/>
<text text-anchor="middle" x="74" y="-92.5" font-family="Helvetica,sans-Serif" font-size="10.00" fill="#000000"> </text>
<polyline fill="none" stroke="#000000" points="0,-85.5 148,-85.5 "/>
<text text-anchor="start" x="8" y="-73.5" font-family="Helvetica,sans-Serif" font-size="10.00" fill="#000000">+ Node()</text>
<text text-anchor="start" x="8" y="-62.5" font-family="Helvetica,sans-Serif" font-size="10.00" fill="#000000">+ Node()</text>
<text text-anchor="start" x="8" y="-51.5" font-family="Helvetica,sans-Serif" font-size="10.00" fill="#000000">+ Node()</text>
<text text-anchor="start" x="8" y="-40.5" font-family="Helvetica,sans-Serif" font-size="10.00" fill="#000000">+ setItem()</text>
<text text-anchor="start" x="8" y="-29.5" font-family="Helvetica,sans-Serif" font-size="10.00" fill="#000000">+ setNext()</text>
<text text-anchor="start" x="8" y="-18.5" font-family="Helvetica,sans-Serif" font-size="10.00" fill="#000000">+ getItem()</text>
<text text-anchor="start" x="8" y="-7.5" font-family="Helvetica,sans-Serif" font-size="10.00" fill="#000000">+ getNext()</text>
</a>
</g>
</g>
<!-- Node0&#45;&gt;Node1 -->
<g id="edge1" class="edge">
<title>Node0&#45;&gt;Node1</title>
<path fill="none" stroke="#ffa500" d="M261.695,-215.0941C224.6851,-201.9408 177.5031,-181.3987 142,-153 131.5271,-144.6228 121.8201,-134.2754 113.211,-123.5954"/>
<polygon fill="#ffa500" stroke="#ffa500" points="260.7628,-218.4752 271.3576,-218.4437 263.0555,-211.8614 260.7628,-218.4752"/>
<text text-anchor="middle" x="198" y="-145" font-family="Helvetica,sans-Serif" font-size="10.00" fill="#000000"> &lt; SecKeySS&lt; string &gt; &gt;</text>
</g>
<!-- Node2 -->
<g id="node3" class="node">
<title>Node2</title>
<g id="a_node3"><a xlink:href="classNode.html" target="_top" xlink:title="{Node\&lt; int \&gt;\n||+ Node()\l+ Node()\l+ Node()\l+ setItem()\l+ setNext()\l+ getItem()\l+ getNext()\l}">
<polygon fill="none" stroke="#000000" points="170,-.5 170,-123.5 238,-123.5 238,-.5 170,-.5"/>
<text text-anchor="middle" x="204" y="-111.5" font-family="Helvetica,sans-Serif" font-size="10.00" fill="#000000">Node&lt; int &gt;</text>
<polyline fill="none" stroke="#000000" points="170,-104.5 238,-104.5 "/>
<text text-anchor="middle" x="204" y="-92.5" font-family="Helvetica,sans-Serif" font-size="10.00" fill="#000000"> </text>
<polyline fill="none" stroke="#000000" points="170,-85.5 238,-85.5 "/>
<text text-anchor="start" x="178" y="-73.5" font-family="Helvetica,sans-Serif" font-size="10.00" fill="#000000">+ Node()</text>
<text text-anchor="start" x="178" y="-62.5" font-family="Helvetica,sans-Serif" font-size="10.00" fill="#000000">+ Node()</text>
<text text-anchor="start" x="178" y="-51.5" font-family="Helvetica,sans-Serif" font-size="10.00" fill="#000000">+ Node()</text>
<text text-anchor="start" x="178" y="-40.5" font-family="Helvetica,sans-Serif" font-size="10.00" fill="#000000">+ setItem()</text>
<text text-anchor="start" x="178" y="-29.5" font-family="Helvetica,sans-Serif" font-size="10.00" fill="#000000">+ setNext()</text>
<text text-anchor="start" x="178" y="-18.5" font-family="Helvetica,sans-Serif" font-size="10.00" fill="#000000">+ getItem()</text>
<text text-anchor="start" x="178" y="-7.5" font-family="Helvetica,sans-Serif" font-size="10.00" fill="#000000">+ getNext()</text>
</a>
</g>
</g>
<!-- Node0&#45;&gt;Node2 -->
<g id="edge2" class="edge">
<title>Node0&#45;&gt;Node2</title>
<path fill="none" stroke="#ffa500" d="M273.0628,-162.938C261.3435,-145.8098 249.0393,-127.8267 238.1164,-111.8624"/>
<polygon fill="#ffa500" stroke="#ffa500" points="270.2249,-164.9884 278.7603,-171.2651 276.002,-161.0356 270.2249,-164.9884"/>
<text text-anchor="middle" x="282" y="-145" font-family="Helvetica,sans-Serif" font-size="10.00" fill="#000000"> &lt; int &gt;</text>
</g>
<!-- Node3 -->
<g id="node4" class="node">
<title>Node3</title>
<g id="a_node4"><a xlink:href="classNode.html" target="_top" xlink:title="{Node\&lt; SecKeySS\&lt; int \&gt; \&gt;\n||+ Node()\l+ Node()\l+ Node()\l+ setItem()\l+ setNext()\l+ getItem()\l+ getNext()\l}">
<polygon fill="none" stroke="#000000" points="256,-.5 256,-123.5 390,-123.5 390,-.5 256,-.5"/>
<text text-anchor="middle" x="323" y="-111.5" font-family="Helvetica,sans-Serif" font-size="10.00" fill="#000000">Node&lt; SecKeySS&lt; int &gt; &gt;</text>
<polyline fill="none" stroke="#000000" points="256,-104.5 390,-104.5 "/>
<text text-anchor="middle" x="323" y="-92.5" font-family="Helvetica,sans-Serif" font-size="10.00" fill="#000000"> </text>
<polyline fill="none" stroke="#000000" points="256,-85.5 390,-85.5 "/>
<text text-anchor="start" x="264" y="-73.5" font-family="Helvetica,sans-Serif" font-size="10.00" fill="#000000">+ Node()</text>
<text text-anchor="start" x="264" y="-62.5" font-family="Helvetica,sans-Serif" font-size="10.00" fill="#000000">+ Node()</text>
<text text-anchor="start" x="264" y="-51.5" font-family="Helvetica,sans-Serif" font-size="10.00" fill="#000000">+ Node()</text>
<text text-anchor="start" x="264" y="-40.5" font-family="Helvetica,sans-Serif" font-size="10.00" fill="#000000">+ setItem()</text>
<text text-anchor="start" x="264" y="-29.5" font-family="Helvetica,sans-Serif" font-size="10.00" fill="#000000">+ setNext()</text>
<text text-anchor="start" x="264" y="-18.5" font-family="Helvetica,sans-Serif" font-size="10.00" fill="#000000">+ getItem()</text>
<text text-anchor="start" x="264" y="-7.5" font-family="Helvetica,sans-Serif" font-size="10.00" fill="#000000">+ getNext()</text>
</a>
</g>
</g>
<!-- Node0&#45;&gt;Node3 -->
<g id="edge3" class="edge">
<title>Node0&#45;&gt;Node3</title>
<path fill="none" stroke="#ffa500" d="M321.7794,-161.1588C321.8527,-154.6805 321.9269,-148.2206 322,-142 322.0701,-136.0277 322.1449,-129.8047 322.2208,-123.5836"/>
<polygon fill="#ffa500" stroke="#ffa500" points="318.2778,-161.2838 321.6652,-171.3226 325.2774,-161.3625 318.2778,-161.2838"/>
<text text-anchor="middle" x="371" y="-145" font-family="Helvetica,sans-Serif" font-size="10.00" fill="#000000"> &lt; SecKeySS&lt; int &gt; &gt;</text>
</g>
<!-- Node4 -->
<g id="node5" class="node">
<title>Node4</title>
<g id="a_node5"><a xlink:href="classNode.html" target="_top" xlink:title="{Node\&lt; T \&gt;\n||+ Node()\l+ Node()\l+ Node()\l+ setItem()\l+ setNext()\l+ getItem()\l+ getNext()\l}">
<polygon fill="none" stroke="#000000" points="409,-.5 409,-123.5 475,-123.5 475,-.5 409,-.5"/>
<text text-anchor="middle" x="442" y="-111.5" font-family="Helvetica,sans-Serif" font-size="10.00" fill="#000000">Node&lt; T &gt;</text>
<polyline fill="none" stroke="#000000" points="409,-104.5 475,-104.5 "/>
<text text-anchor="middle" x="442" y="-92.5" font-family="Helvetica,sans-Serif" font-size="10.00" fill="#000000"> </text>
<polyline fill="none" stroke="#000000" points="409,-85.5 475,-85.5 "/>
<text text-anchor="start" x="417" y="-73.5" font-family="Helvetica,sans-Serif" font-size="10.00" fill="#000000">+ Node()</text>
<text text-anchor="start" x="417" y="-62.5" font-family="Helvetica,sans-Serif" font-size="10.00" fill="#000000">+ Node()</text>
<text text-anchor="start" x="417" y="-51.5" font-family="Helvetica,sans-Serif" font-size="10.00" fill="#000000">+ Node()</text>
<text text-anchor="start" x="417" y="-40.5" font-family="Helvetica,sans-Serif" font-size="10.00" fill="#000000">+ setItem()</text>
<text text-anchor="start" x="417" y="-29.5" font-family="Helvetica,sans-Serif" font-size="10.00" fill="#000000">+ setNext()</text>
<text text-anchor="start" x="417" y="-18.5" font-family="Helvetica,sans-Serif" font-size="10.00" fill="#000000">+ getItem()</text>
<text text-anchor="start" x="417" y="-7.5" font-family="Helvetica,sans-Serif" font-size="10.00" fill="#000000">+ getNext()</text>
</a>
</g>
</g>
<!-- Node0&#45;&gt;Node4 -->
<g id="edge4" class="edge">
<title>Node0&#45;&gt;Node4</title>
<path fill="none" stroke="#ffa500" d="M378.7834,-196.6709C394.1726,-184.4891 409.4347,-169.6965 420,-153 425.5624,-144.2097 429.7186,-134.127 432.824,-123.9476"/>
<polygon fill="#ffa500" stroke="#ffa500" points="376.577,-193.9519 370.7485,-202.7994 380.8223,-199.5177 376.577,-193.9519"/>
<text text-anchor="middle" x="438" y="-145" font-family="Helvetica,sans-Serif" font-size="10.00" fill="#000000"> &lt; T &gt;</text>
</g>
<!-- Node5 -->
<g id="node6" class="node">
<title>Node5</title>
<g id="a_node6"><a xlink:href="classNode.html" target="_top" xlink:title="{Node\&lt; string \&gt;\n||+ Node()\l+ Node()\l+ Node()\l+ setItem()\l+ setNext()\l+ getItem()\l+ getNext()\l}">
<polygon fill="none" stroke="#000000" points="493,-.5 493,-123.5 575,-123.5 575,-.5 493,-.5"/>
<text text-anchor="middle" x="534" y="-111.5" font-family="Helvetica,sans-Serif" font-size="10.00" fill="#000000">Node&lt; string &gt;</text>
<polyline fill="none" stroke="#000000" points="493,-104.5 575,-104.5 "/>
<text text-anchor="middle" x="534" y="-92.5" font-family="Helvetica,sans-Serif" font-size="10.00" fill="#000000"> </text>
<polyline fill="none" stroke="#000000" points="493,-85.5 575,-85.5 "/>
<text text-anchor="start" x="501" y="-73.5" font-family="Helvetica,sans-Serif" font-size="10.00" fill="#000000">+ Node()</text>
<text text-anchor="start" x="501" y="-62.5" font-family="Helvetica,sans-Serif" font-size="10.00" fill="#000000">+ Node()</text>
<text text-anchor="start" x="501" y="-51.5" font-family="Helvetica,sans-Serif" font-size="10.00" fill="#000000">+ Node()</text>
<text text-anchor="start" x="501" y="-40.5" font-family="Helvetica,sans-Serif" font-size="10.00" fill="#000000">+ setItem()</text>
<text text-anchor="start" x="501" y="-29.5" font-family="Helvetica,sans-Serif" font-size="10.00" fill="#000000">+ setNext()</text>
<text text-anchor="start" x="501" y="-18.5" font-family="Helvetica,sans-Serif" font-size="10.00" fill="#000000">+ getItem()</text>
<text text-anchor="start" x="501" y="-7.5" font-family="Helvetica,sans-Serif" font-size="10.00" fill="#000000">+ getNext()</text>
</a>
</g>
</g>
<!-- Node0&#45;&gt;Node5 -->
<g id="edge5" class="edge">
<title>Node0&#45;&gt;Node5</title>
<path fill="none" stroke="#ffa500" d="M379.4121,-202.9171C404.035,-189.1073 432.3973,-171.6589 456,-153 470.0547,-141.8891 472.1425,-137.4309 484,-124 486.9286,-120.6828 489.9063,-117.2262 492.875,-113.7168"/>
<polygon fill="#ffa500" stroke="#ffa500" points="377.5797,-199.9309 370.5254,-207.8358 380.9696,-206.0553 377.5797,-199.9309"/>
<text text-anchor="middle" x="491" y="-145" font-family="Helvetica,sans-Serif" font-size="10.00" fill="#000000"> &lt; string &gt;</text>
</g>
</g>
</svg>
