<?xml version="1.0" encoding="UTF-8" standalone="no"?>
<!DOCTYPE svg PUBLIC "-//W3C//DTD SVG 1.1//EN"
 "http://www.w3.org/Graphics/SVG/1.1/DTD/svg11.dtd">
<!-- Generated by graphviz version 2.40.1 (20161225.0304)
 -->
<!-- Title: ListInterface&lt; ItemType &gt; Pages: 1 -->
<!--zoomable 639 -->
<svg id="main" version="1.1" xmlns="http://www.w3.org/2000/svg" xmlns:xlink="http://www.w3.org/1999/xlink" xml:space="preserve" onload="init(evt)">
<style type="text/css"><![CDATA[
.edge:hover path { stroke: red; }
.edge:hover polygon { stroke: red; fill: red; }
]]></style>
<script type="text/javascript"><![CDATA[
var edges = document.getElementsByTagName('g');
if (edges && edges.length) {
  for (var i=0;i<edges.length;i++) {
    if (edges[i].id.substr(0,4)=='edge') {
      edges[i].setAttribute('class','edge');
    }
  }
}
]]></script>
        <defs>
                <circle id="rim" cx="0" cy="0" r="7"/>
                <circle id="rim2" cx="0" cy="0" r="3.5"/>
                <g id="zoomPlus">
                        <use xlink:href="#rim" fill="#404040">
                                <set attributeName="fill" to="#808080" begin="zoomplus.mouseover" end="zoomplus.mouseout"/>
                        </use>
                        <path d="M-4,0h8M0,-4v8" fill="none" stroke="white" stroke-width="1.5" pointer-events="none"/>
                </g>
                <g id="zoomMin">
                        <use xlink:href="#rim" fill="#404040">
                                <set attributeName="fill" to="#808080" begin="zoomminus.mouseover" end="zoomminus.mouseout"/>
                        </use>
                        <path d="M-4,0h8" fill="none" stroke="white" stroke-width="1.5" pointer-events="none"/>
                </g>
                <g id="dirArrow">
                        <path fill="none" stroke="white" stroke-width="1.5" d="M0,-3.0v7 M-2.5,-0.5L0,-3.0L2.5,-0.5"/>
                </g>
               <g id="resetDef">
                       <use xlink:href="#rim2" fill="#404040">
                               <set attributeName="fill" to="#808080" begin="reset.mouseover" end="reset.mouseout"/>
                       </use>
               </g>
        </defs>

<script type="text/javascript">
var viewWidth = 783;
var viewHeight = 639;
var sectionId = 'dynsection-0';
</script>
<script xlink:href="svgpan.js"/>
<svg id="graph" class="graph">
<g id="viewport">
<title>ListInterface&lt; ItemType &gt;</title>
<!-- Node0 -->
<g id="node1" class="node">
<title>Node0</title>
<polygon fill="#bfbfbf" stroke="#000000" points="322,-485.5 322,-630.5 452,-630.5 452,-485.5 322,-485.5"/>
<text text-anchor="middle" x="387" y="-618.5" font-family="Helvetica,sans-Serif" font-size="10.00" fill="#000000">ListInterface&lt; ItemType &gt;</text>
<polyline fill="none" stroke="#000000" points="322,-611.5 452,-611.5 "/>
<text text-anchor="middle" x="387" y="-599.5" font-family="Helvetica,sans-Serif" font-size="10.00" fill="#000000"> </text>
<polyline fill="none" stroke="#000000" points="322,-592.5 452,-592.5 "/>
<text text-anchor="start" x="330" y="-580.5" font-family="Helvetica,sans-Serif" font-size="10.00" fill="#000000">+ isEmpty()</text>
<text text-anchor="start" x="330" y="-569.5" font-family="Helvetica,sans-Serif" font-size="10.00" fill="#000000">+ getLength()</text>
<text text-anchor="start" x="330" y="-558.5" font-family="Helvetica,sans-Serif" font-size="10.00" fill="#000000">+ getItemCount()</text>
<text text-anchor="start" x="330" y="-547.5" font-family="Helvetica,sans-Serif" font-size="10.00" fill="#000000">+ insert()</text>
<text text-anchor="start" x="330" y="-536.5" font-family="Helvetica,sans-Serif" font-size="10.00" fill="#000000">+ deletion()</text>
<text text-anchor="start" x="330" y="-525.5" font-family="Helvetica,sans-Serif" font-size="10.00" fill="#000000">+ clear()</text>
<text text-anchor="start" x="330" y="-514.5" font-family="Helvetica,sans-Serif" font-size="10.00" fill="#000000">+ getEntry()</text>
<text text-anchor="start" x="330" y="-503.5" font-family="Helvetica,sans-Serif" font-size="10.00" fill="#000000">+ replace()</text>
<text text-anchor="start" x="330" y="-492.5" font-family="Helvetica,sans-Serif" font-size="10.00" fill="#000000">+ displayList()</text>
</g>
<!-- Node1 -->
<g id="node2" class="node">
<title>Node1</title>
<g id="a_node2"><a xlink:href="classLinkedList.html" target="_top" xlink:title="This is LinkedList class creating a list of linked nodes. ">
<polygon fill="none" stroke="#000000" points="406,-248.5 406,-437.5 526,-437.5 526,-248.5 406,-248.5"/>
<text text-anchor="middle" x="466" y="-425.5" font-family="Helvetica,sans-Serif" font-size="10.00" fill="#000000">LinkedList&lt; ItemType &gt;</text>
<polyline fill="none" stroke="#000000" points="406,-418.5 526,-418.5 "/>
<text text-anchor="middle" x="466" y="-406.5" font-family="Helvetica,sans-Serif" font-size="10.00" fill="#000000"> </text>
<polyline fill="none" stroke="#000000" points="406,-399.5 526,-399.5 "/>
<text text-anchor="start" x="414" y="-387.5" font-family="Helvetica,sans-Serif" font-size="10.00" fill="#000000">+ LinkedList()</text>
<text text-anchor="start" x="414" y="-376.5" font-family="Helvetica,sans-Serif" font-size="10.00" fill="#000000">+ LinkedList()</text>
<text text-anchor="start" x="414" y="-365.5" font-family="Helvetica,sans-Serif" font-size="10.00" fill="#000000">+ ~LinkedList()</text>
<text text-anchor="start" x="414" y="-354.5" font-family="Helvetica,sans-Serif" font-size="10.00" fill="#000000">+ isEmpty()</text>
<text text-anchor="start" x="414" y="-343.5" font-family="Helvetica,sans-Serif" font-size="10.00" fill="#000000">+ getLength()</text>
<text text-anchor="start" x="414" y="-332.5" font-family="Helvetica,sans-Serif" font-size="10.00" fill="#000000">+ insert()</text>
<text text-anchor="start" x="414" y="-321.5" font-family="Helvetica,sans-Serif" font-size="10.00" fill="#000000">+ deletion()</text>
<text text-anchor="start" x="414" y="-310.5" font-family="Helvetica,sans-Serif" font-size="10.00" fill="#000000">+ clear()</text>
<text text-anchor="start" x="414" y="-299.5" font-family="Helvetica,sans-Serif" font-size="10.00" fill="#000000">+ getItemCount()</text>
<text text-anchor="start" x="414" y="-288.5" font-family="Helvetica,sans-Serif" font-size="10.00" fill="#000000">+ operator=()</text>
<text text-anchor="start" x="414" y="-277.5" font-family="Helvetica,sans-Serif" font-size="10.00" fill="#000000">+ getEntry()</text>
<text text-anchor="start" x="414" y="-266.5" font-family="Helvetica,sans-Serif" font-size="10.00" fill="#000000">+ replace()</text>
<text text-anchor="start" x="414" y="-255.5" font-family="Helvetica,sans-Serif" font-size="10.00" fill="#000000">+ displayList()</text>
</a>
</g>
</g>
<!-- Node0&#45;&gt;Node1 -->
<g id="edge1" class="edge">
<title>Node0&#45;&gt;Node1</title>
<path fill="none" stroke="#191970" d="M440.1846,-476.1448C441.5492,-473.0978 442.8276,-470.0444 444,-467 447.575,-457.7165 450.5742,-447.8158 453.0893,-437.8107"/>
<polygon fill="none" stroke="#191970" points="436.988,-474.7171 435.8527,-485.251 443.3092,-477.7243 436.988,-474.7171"/>
</g>
<!-- Node7 -->
<g id="node8" class="node">
<title>Node7</title>
<g id="a_node8"><a xlink:href="classListInterface.html" target="_top" xlink:title="{ListInterface\&lt; SecKeySS\l\&lt; string \&gt; \&gt;\n||+ isEmpty()\l+ getLength()\l+ getItemCount()\l+ insert()\l+ deletion()\l+ clear()\l+ getEntry()\l+ replace()\l+ displayList()\l}">
<polygon fill="none" stroke="#000000" points="0,-265 0,-421 128,-421 128,-265 0,-265"/>
<text text-anchor="start" x="8" y="-409" font-family="Helvetica,sans-Serif" font-size="10.00" fill="#000000">ListInterface&lt; SecKeySS</text>
<text text-anchor="middle" x="64" y="-398" font-family="Helvetica,sans-Serif" font-size="10.00" fill="#000000">&lt; string &gt; &gt;</text>
<polyline fill="none" stroke="#000000" points="0,-391 128,-391 "/>
<text text-anchor="middle" x="64" y="-379" font-family="Helvetica,sans-Serif" font-size="10.00" fill="#000000"> </text>
<polyline fill="none" stroke="#000000" points="0,-372 128,-372 "/>
<text text-anchor="start" x="8" y="-360" font-family="Helvetica,sans-Serif" font-size="10.00" fill="#000000">+ isEmpty()</text>
<text text-anchor="start" x="8" y="-349" font-family="Helvetica,sans-Serif" font-size="10.00" fill="#000000">+ getLength()</text>
<text text-anchor="start" x="8" y="-338" font-family="Helvetica,sans-Serif" font-size="10.00" fill="#000000">+ getItemCount()</text>
<text text-anchor="start" x="8" y="-327" font-family="Helvetica,sans-Serif" font-size="10.00" fill="#000000">+ insert()</text>
<text text-anchor="start" x="8" y="-316" font-family="Helvetica,sans-Serif" font-size="10.00" fill="#000000">+ deletion()</text>
<text text-anchor="start" x="8" y="-305" font-family="Helvetica,sans-Serif" font-size="10.00" fill="#000000">+ clear()</text>
<text text-anchor="start" x="8" y="-294" font-family="Helvetica,sans-Serif" font-size="10.00" fill="#000000">+ getEntry()</text>
<text text-anchor="start" x="8" y="-283" font-family="Helvetica,sans-Serif" font-size="10.00" fill="#000000">+ replace()</text>
<text text-anchor="start" x="8" y="-272" font-family="Helvetica,sans-Serif" font-size="10.00" fill="#000000">+ displayList()</text>
</a>
</g>
</g>
<!-- Node0&#45;&gt;Node7 -->
<g id="edge7" class="edge">
<title>Node0&#45;&gt;Node7</title>
<path fill="none" stroke="#ffa500" d="M311.8347,-540.9639C262.6703,-527.0733 199.0723,-503.6485 152,-467 135.753,-454.3508 121.2371,-437.8982 108.9057,-421.1342"/>
<polygon fill="#ffa500" stroke="#ffa500" points="311.2102,-544.4221 321.7804,-543.7003 313.0672,-537.6729 311.2102,-544.4221"/>
<text text-anchor="middle" x="208" y="-459" font-family="Helvetica,sans-Serif" font-size="10.00" fill="#000000"> &lt; SecKeySS&lt; string &gt; &gt;</text>
</g>
<!-- Node8 -->
<g id="node9" class="node">
<title>Node8</title>
<g id="a_node9"><a xlink:href="classListInterface.html" target="_top" xlink:title="{ListInterface\&lt; int \&gt;\n||+ isEmpty()\l+ getLength()\l+ getItemCount()\l+ insert()\l+ deletion()\l+ clear()\l+ getEntry()\l+ replace()\l+ displayList()\l}">
<polygon fill="none" stroke="#000000" points="544.5,-270.5 544.5,-415.5 643.5,-415.5 643.5,-270.5 544.5,-270.5"/>
<text text-anchor="middle" x="594" y="-403.5" font-family="Helvetica,sans-Serif" font-size="10.00" fill="#000000">ListInterface&lt; int &gt;</text>
<polyline fill="none" stroke="#000000" points="544.5,-396.5 643.5,-396.5 "/>
<text text-anchor="middle" x="594" y="-384.5" font-family="Helvetica,sans-Serif" font-size="10.00" fill="#000000"> </text>
<polyline fill="none" stroke="#000000" points="544.5,-377.5 643.5,-377.5 "/>
<text text-anchor="start" x="552.5" y="-365.5" font-family="Helvetica,sans-Serif" font-size="10.00" fill="#000000">+ isEmpty()</text>
<text text-anchor="start" x="552.5" y="-354.5" font-family="Helvetica,sans-Serif" font-size="10.00" fill="#000000">+ getLength()</text>
<text text-anchor="start" x="552.5" y="-343.5" font-family="Helvetica,sans-Serif" font-size="10.00" fill="#000000">+ getItemCount()</text>
<text text-anchor="start" x="552.5" y="-332.5" font-family="Helvetica,sans-Serif" font-size="10.00" fill="#000000">+ insert()</text>
<text text-anchor="start" x="552.5" y="-321.5" font-family="Helvetica,sans-Serif" font-size="10.00" fill="#000000">+ deletion()</text>
<text text-anchor="start" x="552.5" y="-310.5" font-family="Helvetica,sans-Serif" font-size="10.00" fill="#000000">+ clear()</text>
<text text-anchor="start" x="552.5" y="-299.5" font-family="Helvetica,sans-Serif" font-size="10.00" fill="#000000">+ getEntry()</text>
<text text-anchor="start" x="552.5" y="-288.5" font-family="Helvetica,sans-Serif" font-size="10.00" fill="#000000">+ replace()</text>
<text text-anchor="start" x="552.5" y="-277.5" font-family="Helvetica,sans-Serif" font-size="10.00" fill="#000000">+ displayList()</text>
</a>
</g>
</g>
<!-- Node0&#45;&gt;Node8 -->
<g id="edge9" class="edge">
<title>Node0&#45;&gt;Node8</title>
<path fill="none" stroke="#ffa500" d="M460.4013,-506.3618C485.6665,-486.6259 513.0878,-462.8515 535,-438 541.0349,-431.1556 546.8426,-423.6222 552.303,-415.8836"/>
<polygon fill="#ffa500" stroke="#ffa500" points="458.0638,-503.7446 452.2838,-512.624 462.3394,-509.2871 458.0638,-503.7446"/>
<text text-anchor="middle" x="534" y="-459" font-family="Helvetica,sans-Serif" font-size="10.00" fill="#000000"> &lt; int &gt;</text>
</g>
<!-- Node9 -->
<g id="node10" class="node">
<title>Node9</title>
<g id="a_node10"><a xlink:href="classListInterface.html" target="_top" xlink:title="{ListInterface\&lt; SecKeySS\l\&lt; int \&gt; \&gt;\n||+ isEmpty()\l+ getLength()\l+ getItemCount()\l+ insert()\l+ deletion()\l+ clear()\l+ getEntry()\l+ replace()\l+ displayList()\l}">
<polygon fill="none" stroke="#000000" points="260,-265 260,-421 388,-421 388,-265 260,-265"/>
<text text-anchor="start" x="268" y="-409" font-family="Helvetica,sans-Serif" font-size="10.00" fill="#000000">ListInterface&lt; SecKeySS</text>
<text text-anchor="middle" x="324" y="-398" font-family="Helvetica,sans-Serif" font-size="10.00" fill="#000000">&lt; int &gt; &gt;</text>
<polyline fill="none" stroke="#000000" points="260,-391 388,-391 "/>
<text text-anchor="middle" x="324" y="-379" font-family="Helvetica,sans-Serif" font-size="10.00" fill="#000000"> </text>
<polyline fill="none" stroke="#000000" points="260,-372 388,-372 "/>
<text text-anchor="start" x="268" y="-360" font-family="Helvetica,sans-Serif" font-size="10.00" fill="#000000">+ isEmpty()</text>
<text text-anchor="start" x="268" y="-349" font-family="Helvetica,sans-Serif" font-size="10.00" fill="#000000">+ getLength()</text>
<text text-anchor="start" x="268" y="-338" font-family="Helvetica,sans-Serif" font-size="10.00" fill="#000000">+ getItemCount()</text>
<text text-anchor="start" x="268" y="-327" font-family="Helvetica,sans-Serif" font-size="10.00" fill="#000000">+ insert()</text>
<text text-anchor="start" x="268" y="-316" font-family="Helvetica,sans-Serif" font-size="10.00" fill="#000000">+ deletion()</text>
<text text-anchor="start" x="268" y="-305" font-family="Helvetica,sans-Serif" font-size="10.00" fill="#000000">+ clear()</text>
<text text-anchor="start" x="268" y="-294" font-family="Helvetica,sans-Serif" font-size="10.00" fill="#000000">+ getEntry()</text>
<text text-anchor="start" x="268" y="-283" font-family="Helvetica,sans-Serif" font-size="10.00" fill="#000000">+ replace()</text>
<text text-anchor="start" x="268" y="-272" font-family="Helvetica,sans-Serif" font-size="10.00" fill="#000000">+ displayList()</text>
</a>
</g>
</g>
<!-- Node0&#45;&gt;Node9 -->
<g id="edge11" class="edge">
<title>Node0&#45;&gt;Node9</title>
<path fill="none" stroke="#ffa500" d="M348.9093,-475.8527C347.8782,-472.8841 346.9037,-469.9272 346,-467 341.4851,-452.3763 337.7945,-436.4787 334.8148,-421.0972"/>
<polygon fill="#ffa500" stroke="#ffa500" points="345.6598,-477.1581 352.3777,-485.3508 352.2351,-474.7569 345.6598,-477.1581"/>
<text text-anchor="middle" x="395" y="-459" font-family="Helvetica,sans-Serif" font-size="10.00" fill="#000000"> &lt; SecKeySS&lt; int &gt; &gt;</text>
</g>
<!-- Node10 -->
<g id="node11" class="node">
<title>Node10</title>
<g id="a_node11"><a xlink:href="classListInterface.html" target="_top" xlink:title="{ListInterface\&lt; T \&gt;\n||+ isEmpty()\l+ getLength()\l+ getItemCount()\l+ insert()\l+ deletion()\l+ clear()\l+ getEntry()\l+ replace()\l+ displayList()\l}">
<polygon fill="none" stroke="#000000" points="146.5,-270.5 146.5,-415.5 241.5,-415.5 241.5,-270.5 146.5,-270.5"/>
<text text-anchor="middle" x="194" y="-403.5" font-family="Helvetica,sans-Serif" font-size="10.00" fill="#000000">ListInterface&lt; T &gt;</text>
<polyline fill="none" stroke="#000000" points="146.5,-396.5 241.5,-396.5 "/>
<text text-anchor="middle" x="194" y="-384.5" font-family="Helvetica,sans-Serif" font-size="10.00" fill="#000000"> </text>
<polyline fill="none" stroke="#000000" points="146.5,-377.5 241.5,-377.5 "/>
<text text-anchor="start" x="154.5" y="-365.5" font-family="Helvetica,sans-Serif" font-size="10.00" fill="#000000">+ isEmpty()</text>
<text text-anchor="start" x="154.5" y="-354.5" font-family="Helvetica,sans-Serif" font-size="10.00" fill="#000000">+ getLength()</text>
<text text-anchor="start" x="154.5" y="-343.5" font-family="Helvetica,sans-Serif" font-size="10.00" fill="#000000">+ getItemCount()</text>
<text text-anchor="start" x="154.5" y="-332.5" font-family="Helvetica,sans-Serif" font-size="10.00" fill="#000000">+ insert()</text>
<text text-anchor="start" x="154.5" y="-321.5" font-family="Helvetica,sans-Serif" font-size="10.00" fill="#000000">+ deletion()</text>
<text text-anchor="start" x="154.5" y="-310.5" font-family="Helvetica,sans-Serif" font-size="10.00" fill="#000000">+ clear()</text>
<text text-anchor="start" x="154.5" y="-299.5" font-family="Helvetica,sans-Serif" font-size="10.00" fill="#000000">+ getEntry()</text>
<text text-anchor="start" x="154.5" y="-288.5" font-family="Helvetica,sans-Serif" font-size="10.00" fill="#000000">+ replace()</text>
<text text-anchor="start" x="154.5" y="-277.5" font-family="Helvetica,sans-Serif" font-size="10.00" fill="#000000">+ displayList()</text>
</a>
</g>
</g>
<!-- Node0&#45;&gt;Node10 -->
<g id="edge13" class="edge">
<title>Node0&#45;&gt;Node10</title>
<path fill="none" stroke="#ffa500" d="M314.2961,-501.1257C292.5977,-482.3029 269.6495,-460.4076 251,-438 245.217,-431.0517 239.6362,-423.4526 234.3783,-415.6758"/>
<polygon fill="#ffa500" stroke="#ffa500" points="312.0393,-503.8011 321.9098,-507.6512 316.5946,-498.4861 312.0393,-503.8011"/>
<text text-anchor="middle" x="289" y="-459" font-family="Helvetica,sans-Serif" font-size="10.00" fill="#000000"> &lt; T &gt;</text>
</g>
<!-- Node11 -->
<g id="node12" class="node">
<title>Node11</title>
<g id="a_node12"><a xlink:href="classListInterface.html" target="_top" xlink:title="{ListInterface\&lt; string \&gt;\n||+ isEmpty()\l+ getLength()\l+ getItemCount()\l+ insert()\l+ deletion()\l+ clear()\l+ getEntry()\l+ replace()\l+ displayList()\l}">
<polygon fill="none" stroke="#000000" points="661.5,-270.5 661.5,-415.5 774.5,-415.5 774.5,-270.5 661.5,-270.5"/>
<text text-anchor="middle" x="718" y="-403.5" font-family="Helvetica,sans-Serif" font-size="10.00" fill="#000000">ListInterface&lt; string &gt;</text>
<polyline fill="none" stroke="#000000" points="661.5,-396.5 774.5,-396.5 "/>
<text text-anchor="middle" x="718" y="-384.5" font-family="Helvetica,sans-Serif" font-size="10.00" fill="#000000"> </text>
<polyline fill="none" stroke="#000000" points="661.5,-377.5 774.5,-377.5 "/>
<text text-anchor="start" x="669.5" y="-365.5" font-family="Helvetica,sans-Serif" font-size="10.00" fill="#000000">+ isEmpty()</text>
<text text-anchor="start" x="669.5" y="-354.5" font-family="Helvetica,sans-Serif" font-size="10.00" fill="#000000">+ getLength()</text>
<text text-anchor="start" x="669.5" y="-343.5" font-family="Helvetica,sans-Serif" font-size="10.00" fill="#000000">+ getItemCount()</text>
<text text-anchor="start" x="669.5" y="-332.5" font-family="Helvetica,sans-Serif" font-size="10.00" fill="#000000">+ insert()</text>
<text text-anchor="start" x="669.5" y="-321.5" font-family="Helvetica,sans-Serif" font-size="10.00" fill="#000000">+ deletion()</text>
<text text-anchor="start" x="669.5" y="-310.5" font-family="Helvetica,sans-Serif" font-size="10.00" fill="#000000">+ clear()</text>
<text text-anchor="start" x="669.5" y="-299.5" font-family="Helvetica,sans-Serif" font-size="10.00" fill="#000000">+ getEntry()</text>
<text text-anchor="start" x="669.5" y="-288.5" font-family="Helvetica,sans-Serif" font-size="10.00" fill="#000000">+ replace()</text>
<text text-anchor="start" x="669.5" y="-277.5" font-family="Helvetica,sans-Serif" font-size="10.00" fill="#000000">+ displayList()</text>
</a>
</g>
</g>
<!-- Node0&#45;&gt;Node11 -->
<g id="edge15" class="edge">
<title>Node0&#45;&gt;Node11</title>
<path fill="none" stroke="#ffa500" d="M461.6736,-536.262C518.3244,-517.0785 595.7777,-484.8205 652,-438 659.8704,-431.4457 667.2244,-423.7325 673.9553,-415.5823"/>
<polygon fill="#ffa500" stroke="#ffa500" points="460.4426,-532.9828 452.0586,-539.4604 462.6522,-539.625 460.4426,-532.9828"/>
<text text-anchor="middle" x="651" y="-459" font-family="Helvetica,sans-Serif" font-size="10.00" fill="#000000"> &lt; string &gt;</text>
</g>
<!-- Node2 -->
<g id="node3" class="node">
<title>Node2</title>
<g id="a_node3"><a xlink:href="classLinkedList.html" target="_top" xlink:title="{LinkedList\&lt; SecKeySS\l\&lt; string \&gt; \&gt;\n||+ LinkedList()\l+ LinkedList()\l+ ~LinkedList()\l+ isEmpty()\l+ getLength()\l+ insert()\l+ deletion()\l+ clear()\l+ getItemCount()\l+ operator=()\l+ getEntry()\l+ replace()\l+ displayList()\l}">
<polygon fill="none" stroke="#000000" points="97,-.5 97,-200.5 215,-200.5 215,-.5 97,-.5"/>
<text text-anchor="start" x="105" y="-188.5" font-family="Helvetica,sans-Serif" font-size="10.00" fill="#000000">LinkedList&lt; SecKeySS</text>
<text text-anchor="middle" x="156" y="-177.5" font-family="Helvetica,sans-Serif" font-size="10.00" fill="#000000">&lt; string &gt; &gt;</text>
<polyline fill="none" stroke="#000000" points="97,-170.5 215,-170.5 "/>
<text text-anchor="middle" x="156" y="-158.5" font-family="Helvetica,sans-Serif" font-size="10.00" fill="#000000"> </text>
<polyline fill="none" stroke="#000000" points="97,-151.5 215,-151.5 "/>
<text text-anchor="start" x="105" y="-139.5" font-family="Helvetica,sans-Serif" font-size="10.00" fill="#000000">+ LinkedList()</text>
<text text-anchor="start" x="105" y="-128.5" font-family="Helvetica,sans-Serif" font-size="10.00" fill="#000000">+ LinkedList()</text>
<text text-anchor="start" x="105" y="-117.5" font-family="Helvetica,sans-Serif" font-size="10.00" fill="#000000">+ ~LinkedList()</text>
<text text-anchor="start" x="105" y="-106.5" font-family="Helvetica,sans-Serif" font-size="10.00" fill="#000000">+ isEmpty()</text>
<text text-anchor="start" x="105" y="-95.5" font-family="Helvetica,sans-Serif" font-size="10.00" fill="#000000">+ getLength()</text>
<text text-anchor="start" x="105" y="-84.5" font-family="Helvetica,sans-Serif" font-size="10.00" fill="#000000">+ insert()</text>
<text text-anchor="start" x="105" y="-73.5" font-family="Helvetica,sans-Serif" font-size="10.00" fill="#000000">+ deletion()</text>
<text text-anchor="start" x="105" y="-62.5" font-family="Helvetica,sans-Serif" font-size="10.00" fill="#000000">+ clear()</text>
<text text-anchor="start" x="105" y="-51.5" font-family="Helvetica,sans-Serif" font-size="10.00" fill="#000000">+ getItemCount()</text>
<text text-anchor="start" x="105" y="-40.5" font-family="Helvetica,sans-Serif" font-size="10.00" fill="#000000">+ operator=()</text>
<text text-anchor="start" x="105" y="-29.5" font-family="Helvetica,sans-Serif" font-size="10.00" fill="#000000">+ getEntry()</text>
<text text-anchor="start" x="105" y="-18.5" font-family="Helvetica,sans-Serif" font-size="10.00" fill="#000000">+ replace()</text>
<text text-anchor="start" x="105" y="-7.5" font-family="Helvetica,sans-Serif" font-size="10.00" fill="#000000">+ displayList()</text>
</a>
</g>
</g>
<!-- Node1&#45;&gt;Node2 -->
<g id="edge2" class="edge">
<title>Node1&#45;&gt;Node2</title>
<path fill="none" stroke="#ffa500" d="M397.2796,-248.1655C397.1865,-248.1102 397.0933,-248.055 397,-248 340.6772,-214.7989 307.4014,-263.0673 251,-230 237.7702,-222.2435 225.8401,-211.8425 215.2618,-200.2912"/>
<polygon fill="#ffa500" stroke="#ffa500" points="395.4246,-251.1357 405.6783,-253.8025 399.3256,-245.3235 395.4246,-251.1357"/>
<text text-anchor="middle" x="307" y="-222" font-family="Helvetica,sans-Serif" font-size="10.00" fill="#000000"> &lt; SecKeySS&lt; string &gt; &gt;</text>
</g>
<!-- Node3 -->
<g id="node4" class="node">
<title>Node3</title>
<g id="a_node4"><a xlink:href="classLinkedList.html" target="_top" xlink:title="{LinkedList\&lt; int \&gt;\n||+ LinkedList()\l+ LinkedList()\l+ ~LinkedList()\l+ isEmpty()\l+ getLength()\l+ insert()\l+ deletion()\l+ clear()\l+ getItemCount()\l+ operator=()\l+ getEntry()\l+ replace()\l+ displayList()\l}">
<polygon fill="none" stroke="#000000" points="497.5,-6 497.5,-195 588.5,-195 588.5,-6 497.5,-6"/>
<text text-anchor="middle" x="543" y="-183" font-family="Helvetica,sans-Serif" font-size="10.00" fill="#000000">LinkedList&lt; int &gt;</text>
<polyline fill="none" stroke="#000000" points="497.5,-176 588.5,-176 "/>
<text text-anchor="middle" x="543" y="-164" font-family="Helvetica,sans-Serif" font-size="10.00" fill="#000000"> </text>
<polyline fill="none" stroke="#000000" points="497.5,-157 588.5,-157 "/>
<text text-anchor="start" x="505.5" y="-145" font-family="Helvetica,sans-Serif" font-size="10.00" fill="#000000">+ LinkedList()</text>
<text text-anchor="start" x="505.5" y="-134" font-family="Helvetica,sans-Serif" font-size="10.00" fill="#000000">+ LinkedList()</text>
<text text-anchor="start" x="505.5" y="-123" font-family="Helvetica,sans-Serif" font-size="10.00" fill="#000000">+ ~LinkedList()</text>
<text text-anchor="start" x="505.5" y="-112" font-family="Helvetica,sans-Serif" font-size="10.00" fill="#000000">+ isEmpty()</text>
<text text-anchor="start" x="505.5" y="-101" font-family="Helvetica,sans-Serif" font-size="10.00" fill="#000000">+ getLength()</text>
<text text-anchor="start" x="505.5" y="-90" font-family="Helvetica,sans-Serif" font-size="10.00" fill="#000000">+ insert()</text>
<text text-anchor="start" x="505.5" y="-79" font-family="Helvetica,sans-Serif" font-size="10.00" fill="#000000">+ deletion()</text>
<text text-anchor="start" x="505.5" y="-68" font-family="Helvetica,sans-Serif" font-size="10.00" fill="#000000">+ clear()</text>
<text text-anchor="start" x="505.5" y="-57" font-family="Helvetica,sans-Serif" font-size="10.00" fill="#000000">+ getItemCount()</text>
<text text-anchor="start" x="505.5" y="-46" font-family="Helvetica,sans-Serif" font-size="10.00" fill="#000000">+ operator=()</text>
<text text-anchor="start" x="505.5" y="-35" font-family="Helvetica,sans-Serif" font-size="10.00" fill="#000000">+ getEntry()</text>
<text text-anchor="start" x="505.5" y="-24" font-family="Helvetica,sans-Serif" font-size="10.00" fill="#000000">+ replace()</text>
<text text-anchor="start" x="505.5" y="-13" font-family="Helvetica,sans-Serif" font-size="10.00" fill="#000000">+ displayList()</text>
</a>
</g>
</g>
<!-- Node1&#45;&gt;Node3 -->
<g id="edge3" class="edge">
<title>Node1&#45;&gt;Node3</title>
<path fill="none" stroke="#ffa500" d="M515.9898,-238.9006C517.0462,-235.9186 518.0528,-232.9478 519,-230 522.5675,-218.8977 525.666,-207.0793 528.341,-195.2709"/>
<polygon fill="#ffa500" stroke="#ffa500" points="512.645,-237.8546 512.4584,-248.4478 519.2103,-240.2831 512.645,-237.8546"/>
<text text-anchor="middle" x="539" y="-222" font-family="Helvetica,sans-Serif" font-size="10.00" fill="#000000"> &lt; int &gt;</text>
</g>
<!-- Node4 -->
<g id="node5" class="node">
<title>Node4</title>
<g id="a_node5"><a xlink:href="classLinkedList.html" target="_top" xlink:title="{LinkedList\&lt; SecKeySS\l\&lt; int \&gt; \&gt;\n||+ LinkedList()\l+ LinkedList()\l+ ~LinkedList()\l+ isEmpty()\l+ getLength()\l+ insert()\l+ deletion()\l+ clear()\l+ getItemCount()\l+ operator=()\l+ getEntry()\l+ replace()\l+ displayList()\l}">
<polygon fill="none" stroke="#000000" points="358,-.5 358,-200.5 476,-200.5 476,-.5 358,-.5"/>
<text text-anchor="start" x="366" y="-188.5" font-family="Helvetica,sans-Serif" font-size="10.00" fill="#000000">LinkedList&lt; SecKeySS</text>
<text text-anchor="middle" x="417" y="-177.5" font-family="Helvetica,sans-Serif" font-size="10.00" fill="#000000">&lt; int &gt; &gt;</text>
<polyline fill="none" stroke="#000000" points="358,-170.5 476,-170.5 "/>
<text text-anchor="middle" x="417" y="-158.5" font-family="Helvetica,sans-Serif" font-size="10.00" fill="#000000"> </text>
<polyline fill="none" stroke="#000000" points="358,-151.5 476,-151.5 "/>
<text text-anchor="start" x="366" y="-139.5" font-family="Helvetica,sans-Serif" font-size="10.00" fill="#000000">+ LinkedList()</text>
<text text-anchor="start" x="366" y="-128.5" font-family="Helvetica,sans-Serif" font-size="10.00" fill="#000000">+ LinkedList()</text>
<text text-anchor="start" x="366" y="-117.5" font-family="Helvetica,sans-Serif" font-size="10.00" fill="#000000">+ ~LinkedList()</text>
<text text-anchor="start" x="366" y="-106.5" font-family="Helvetica,sans-Serif" font-size="10.00" fill="#000000">+ isEmpty()</text>
<text text-anchor="start" x="366" y="-95.5" font-family="Helvetica,sans-Serif" font-size="10.00" fill="#000000">+ getLength()</text>
<text text-anchor="start" x="366" y="-84.5" font-family="Helvetica,sans-Serif" font-size="10.00" fill="#000000">+ insert()</text>
<text text-anchor="start" x="366" y="-73.5" font-family="Helvetica,sans-Serif" font-size="10.00" fill="#000000">+ deletion()</text>
<text text-anchor="start" x="366" y="-62.5" font-family="Helvetica,sans-Serif" font-size="10.00" fill="#000000">+ clear()</text>
<text text-anchor="start" x="366" y="-51.5" font-family="Helvetica,sans-Serif" font-size="10.00" fill="#000000">+ getItemCount()</text>
<text text-anchor="start" x="366" y="-40.5" font-family="Helvetica,sans-Serif" font-size="10.00" fill="#000000">+ operator=()</text>
<text text-anchor="start" x="366" y="-29.5" font-family="Helvetica,sans-Serif" font-size="10.00" fill="#000000">+ getEntry()</text>
<text text-anchor="start" x="366" y="-18.5" font-family="Helvetica,sans-Serif" font-size="10.00" fill="#000000">+ replace()</text>
<text text-anchor="start" x="366" y="-7.5" font-family="Helvetica,sans-Serif" font-size="10.00" fill="#000000">+ displayList()</text>
</a>
</g>
</g>
<!-- Node1&#45;&gt;Node4 -->
<g id="edge4" class="edge">
<title>Node1&#45;&gt;Node4</title>
<path fill="none" stroke="#ffa500" d="M422.975,-238.6287C422.2555,-235.7387 421.5942,-232.8589 421,-230 419.0317,-220.5302 417.6118,-210.5881 416.6116,-200.5994"/>
<polygon fill="#ffa500" stroke="#ffa500" points="419.6483,-239.7354 425.6319,-248.4788 426.4068,-237.9124 419.6483,-239.7354"/>
<text text-anchor="middle" x="470" y="-222" font-family="Helvetica,sans-Serif" font-size="10.00" fill="#000000"> &lt; SecKeySS&lt; int &gt; &gt;</text>
</g>
<!-- Node5 -->
<g id="node6" class="node">
<title>Node5</title>
<g id="a_node6"><a xlink:href="classLinkedList.html" target="_top" xlink:title="{LinkedList\&lt; T \&gt;\n||+ LinkedList()\l+ LinkedList()\l+ ~LinkedList()\l+ isEmpty()\l+ getLength()\l+ insert()\l+ deletion()\l+ clear()\l+ getItemCount()\l+ operator=()\l+ getEntry()\l+ replace()\l+ displayList()\l}">
<polygon fill="none" stroke="#000000" points="243.5,-6 243.5,-195 334.5,-195 334.5,-6 243.5,-6"/>
<text text-anchor="middle" x="289" y="-183" font-family="Helvetica,sans-Serif" font-size="10.00" fill="#000000">LinkedList&lt; T &gt;</text>
<polyline fill="none" stroke="#000000" points="243.5,-176 334.5,-176 "/>
<text text-anchor="middle" x="289" y="-164" font-family="Helvetica,sans-Serif" font-size="10.00" fill="#000000"> </text>
<polyline fill="none" stroke="#000000" points="243.5,-157 334.5,-157 "/>
<text text-anchor="start" x="251.5" y="-145" font-family="Helvetica,sans-Serif" font-size="10.00" fill="#000000">+ LinkedList()</text>
<text text-anchor="start" x="251.5" y="-134" font-family="Helvetica,sans-Serif" font-size="10.00" fill="#000000">+ LinkedList()</text>
<text text-anchor="start" x="251.5" y="-123" font-family="Helvetica,sans-Serif" font-size="10.00" fill="#000000">+ ~LinkedList()</text>
<text text-anchor="start" x="251.5" y="-112" font-family="Helvetica,sans-Serif" font-size="10.00" fill="#000000">+ isEmpty()</text>
<text text-anchor="start" x="251.5" y="-101" font-family="Helvetica,sans-Serif" font-size="10.00" fill="#000000">+ getLength()</text>
<text text-anchor="start" x="251.5" y="-90" font-family="Helvetica,sans-Serif" font-size="10.00" fill="#000000">+ insert()</text>
<text text-anchor="start" x="251.5" y="-79" font-family="Helvetica,sans-Serif" font-size="10.00" fill="#000000">+ deletion()</text>
<text text-anchor="start" x="251.5" y="-68" font-family="Helvetica,sans-Serif" font-size="10.00" fill="#000000">+ clear()</text>
<text text-anchor="start" x="251.5" y="-57" font-family="Helvetica,sans-Serif" font-size="10.00" fill="#000000">+ getItemCount()</text>
<text text-anchor="start" x="251.5" y="-46" font-family="Helvetica,sans-Serif" font-size="10.00" fill="#000000">+ operator=()</text>
<text text-anchor="start" x="251.5" y="-35" font-family="Helvetica,sans-Serif" font-size="10.00" fill="#000000">+ getEntry()</text>
<text text-anchor="start" x="251.5" y="-24" font-family="Helvetica,sans-Serif" font-size="10.00" fill="#000000">+ replace()</text>
<text text-anchor="start" x="251.5" y="-13" font-family="Helvetica,sans-Serif" font-size="10.00" fill="#000000">+ displayList()</text>
</a>
</g>
</g>
<!-- Node1&#45;&gt;Node5 -->
<g id="edge5" class="edge">
<title>Node1&#45;&gt;Node5</title>
<path fill="none" stroke="#ffa500" d="M399.1984,-250.5676C398.4654,-249.7048 397.7325,-248.8487 397,-248 377.4917,-225.3973 367.4724,-224.4569 349,-201 344.0339,-194.6939 339.1719,-187.9412 334.5001,-181.0298"/>
<polygon fill="#ffa500" stroke="#ffa500" points="396.7022,-253.0401 405.7856,-258.4937 402.0857,-248.5659 396.7022,-253.0401"/>
<text text-anchor="middle" x="393" y="-222" font-family="Helvetica,sans-Serif" font-size="10.00" fill="#000000"> &lt; T &gt;</text>
</g>
<!-- Node6 -->
<g id="node7" class="node">
<title>Node6</title>
<g id="a_node7"><a xlink:href="classLinkedList.html" target="_top" xlink:title="{LinkedList\&lt; string \&gt;\n||+ LinkedList()\l+ LinkedList()\l+ ~LinkedList()\l+ isEmpty()\l+ getLength()\l+ insert()\l+ deletion()\l+ clear()\l+ getItemCount()\l+ operator=()\l+ getEntry()\l+ replace()\l+ displayList()\l}">
<polygon fill="none" stroke="#000000" points="619.5,-6 619.5,-195 722.5,-195 722.5,-6 619.5,-6"/>
<text text-anchor="middle" x="671" y="-183" font-family="Helvetica,sans-Serif" font-size="10.00" fill="#000000">LinkedList&lt; string &gt;</text>
<polyline fill="none" stroke="#000000" points="619.5,-176 722.5,-176 "/>
<text text-anchor="middle" x="671" y="-164" font-family="Helvetica,sans-Serif" font-size="10.00" fill="#000000"> </text>
<polyline fill="none" stroke="#000000" points="619.5,-157 722.5,-157 "/>
<text text-anchor="start" x="627.5" y="-145" font-family="Helvetica,sans-Serif" font-size="10.00" fill="#000000">+ LinkedList()</text>
<text text-anchor="start" x="627.5" y="-134" font-family="Helvetica,sans-Serif" font-size="10.00" fill="#000000">+ LinkedList()</text>
<text text-anchor="start" x="627.5" y="-123" font-family="Helvetica,sans-Serif" font-size="10.00" fill="#000000">+ ~LinkedList()</text>
<text text-anchor="start" x="627.5" y="-112" font-family="Helvetica,sans-Serif" font-size="10.00" fill="#000000">+ isEmpty()</text>
<text text-anchor="start" x="627.5" y="-101" font-family="Helvetica,sans-Serif" font-size="10.00" fill="#000000">+ getLength()</text>
<text text-anchor="start" x="627.5" y="-90" font-family="Helvetica,sans-Serif" font-size="10.00" fill="#000000">+ insert()</text>
<text text-anchor="start" x="627.5" y="-79" font-family="Helvetica,sans-Serif" font-size="10.00" fill="#000000">+ deletion()</text>
<text text-anchor="start" x="627.5" y="-68" font-family="Helvetica,sans-Serif" font-size="10.00" fill="#000000">+ clear()</text>
<text text-anchor="start" x="627.5" y="-57" font-family="Helvetica,sans-Serif" font-size="10.00" fill="#000000">+ getItemCount()</text>
<text text-anchor="start" x="627.5" y="-46" font-family="Helvetica,sans-Serif" font-size="10.00" fill="#000000">+ operator=()</text>
<text text-anchor="start" x="627.5" y="-35" font-family="Helvetica,sans-Serif" font-size="10.00" fill="#000000">+ getEntry()</text>
<text text-anchor="start" x="627.5" y="-24" font-family="Helvetica,sans-Serif" font-size="10.00" fill="#000000">+ replace()</text>
<text text-anchor="start" x="627.5" y="-13" font-family="Helvetica,sans-Serif" font-size="10.00" fill="#000000">+ displayList()</text>
</a>
</g>
</g>
<!-- Node1&#45;&gt;Node6 -->
<g id="edge6" class="edge">
<title>Node1&#45;&gt;Node6</title>
<path fill="none" stroke="#ffa500" d="M533.0331,-250.0211C533.6873,-249.341 534.343,-248.6672 535,-248 544.3555,-238.4999 548.3669,-238.0446 559,-230 575.9427,-217.1819 582.107,-216.1511 597,-201 604.6705,-193.1966 612.1943,-184.561 619.3309,-175.7253"/>
<polygon fill="#ffa500" stroke="#ffa500" points="530.3135,-247.8068 526.0901,-257.5234 535.4511,-252.5613 530.3135,-247.8068"/>
<text text-anchor="middle" x="598" y="-222" font-family="Helvetica,sans-Serif" font-size="10.00" fill="#000000"> &lt; string &gt;</text>
</g>
<!-- Node7&#45;&gt;Node2 -->
<g id="edge8" class="edge">
<title>Node7&#45;&gt;Node2</title>
<path fill="none" stroke="#191970" d="M97.3085,-255.2032C104.0354,-237.4719 111.1552,-218.7052 118.0282,-200.5888"/>
<polygon fill="none" stroke="#191970" points="93.8906,-254.3454 93.6158,-264.9366 100.4354,-256.8284 93.8906,-254.3454"/>
</g>
<!-- Node8&#45;&gt;Node3 -->
<g id="edge10" class="edge">
<title>Node8&#45;&gt;Node3</title>
<path fill="none" stroke="#191970" d="M646.886,-264.6077C651.356,-249.0612 651.4152,-233.1758 643,-219 634.4719,-204.634 622.3252,-212.2783 610,-201 602.3422,-193.9927 595.1408,-185.9377 588.5056,-177.5023"/>
<polygon fill="none" stroke="#191970" points="643.5207,-263.6308 643.5692,-274.2256 650.1383,-265.913 643.5207,-263.6308"/>
</g>
<!-- Node9&#45;&gt;Node4 -->
<g id="edge12" class="edge">
<title>Node9&#45;&gt;Node4</title>
<path fill="none" stroke="#191970" d="M338.915,-255.0625C342.0133,-242.7774 345.6822,-230.449 350,-219 352.3768,-212.6977 355.0548,-206.33 357.9374,-199.9895"/>
<polygon fill="none" stroke="#191970" points="335.4875,-254.3467 336.5512,-264.888 342.2933,-255.9841 335.4875,-254.3467"/>
</g>
<!-- Node10&#45;&gt;Node5 -->
<g id="edge14" class="edge">
<title>Node10&#45;&gt;Node5</title>
<path fill="none" stroke="#191970" d="M178.5058,-260.2712C179.2799,-245.7621 182.5529,-231.369 190,-219 198.8193,-204.352 211.3943,-212.5517 224,-201 230.8938,-194.6826 237.3724,-187.4808 243.3689,-179.9007"/>
<polygon fill="none" stroke="#191970" points="175.0056,-260.2575 178.3484,-270.3112 182.0048,-260.3673 175.0056,-260.2575"/>
</g>
<!-- Node11&#45;&gt;Node6 -->
<g id="edge16" class="edge">
<title>Node11&#45;&gt;Node6</title>
<path fill="none" stroke="#191970" d="M701.9946,-260.4188C697.9298,-239.4462 693.5308,-216.7495 689.3591,-195.2254"/>
<polygon fill="none" stroke="#191970" points="698.5596,-261.0907 703.8985,-270.242 705.4317,-259.7587 698.5596,-261.0907"/>
</g>
</g>
</svg>
        <g id="navigator" transform="translate(0 0)" fill="#404254">
                <rect fill="#f2f5e9" fill-opacity="0.5" stroke="#606060" stroke-width=".5" x="0" y="0" width="60" height="60"/>
                <use id="zoomplus" xlink:href="#zoomPlus" x="17" y="9" onmousedown="handleZoom(evt,'in')"/>
                <use id="zoomminus" xlink:href="#zoomMin" x="42" y="9" onmousedown="handleZoom(evt,'out')"/>
                <use id="reset" xlink:href="#resetDef" x="30" y="36" onmousedown="handleReset()"/>
                <g id="arrowUp" xlink:href="#dirArrow" transform="translate(30 24)" onmousedown="handlePan(0,-1)">
                  <use xlink:href="#rim" fill="#404040">
                        <set attributeName="fill" to="#808080" begin="arrowUp.mouseover" end="arrowUp.mouseout"/>
                  </use>
                  <path fill="none" stroke="white" stroke-width="1.5" d="M0,-3.0v7 M-2.5,-0.5L0,-3.0L2.5,-0.5"/>
                </g>
                <g id="arrowRight" xlink:href="#dirArrow" transform="rotate(90) translate(36 -43)" onmousedown="handlePan(1,0)">
                  <use xlink:href="#rim" fill="#404040">
                        <set attributeName="fill" to="#808080" begin="arrowRight.mouseover" end="arrowRight.mouseout"/>
                  </use>
                  <path fill="none" stroke="white" stroke-width="1.5" d="M0,-3.0v7 M-2.5,-0.5L0,-3.0L2.5,-0.5"/>
                </g>
                <g id="arrowDown" xlink:href="#dirArrow" transform="rotate(180) translate(-30 -48)" onmousedown="handlePan(0,1)">
                  <use xlink:href="#rim" fill="#404040">
                        <set attributeName="fill" to="#808080" begin="arrowDown.mouseover" end="arrowDown.mouseout"/>
                  </use>
                  <path fill="none" stroke="white" stroke-width="1.5" d="M0,-3.0v7 M-2.5,-0.5L0,-3.0L2.5,-0.5"/>
                </g>
                <g id="arrowLeft" xlink:href="#dirArrow" transform="rotate(270) translate(-36 17)" onmousedown="handlePan(-1,0)">
                  <use xlink:href="#rim" fill="#404040">
                        <set attributeName="fill" to="#808080" begin="arrowLeft.mouseover" end="arrowLeft.mouseout"/>
                  </use>
                  <path fill="none" stroke="white" stroke-width="1.5" d="M0,-3.0v7 M-2.5,-0.5L0,-3.0L2.5,-0.5"/>
                </g>
        </g>
        <svg viewBox="0 0 15 15" width="100%" height="30px" preserveAspectRatio="xMaxYMin meet">
         <g id="arrow_out" transform="scale(0.3 0.3)">
          <a xlink:href="classListInterface__inherit__graph_org.svg" target="_base">
           <rect id="button" ry="5" rx="5" y="6" x="6" height="38" width="38"
                fill="#f2f5e9" fill-opacity="0.5" stroke="#606060" stroke-width="1.0"/>
           <path id="arrow"
             d="M 11.500037,31.436501 C 11.940474,20.09759 22.043105,11.32322 32.158766,21.979434 L 37.068811,17.246167 C 37.068811,17.246167 37.088388,32 37.088388,32 L 22.160133,31.978069 C 22.160133,31.978069 26.997745,27.140456 26.997745,27.140456 C 18.528582,18.264221 13.291696,25.230495 11.500037,31.436501 z"
             style="fill:#404040;"/>
          </a>
         </g>
        </svg>
</svg>
