<?xml version="1.0" encoding="UTF-8" standalone="no"?>
<!DOCTYPE svg PUBLIC "-//W3C//DTD SVG 1.1//EN"
 "http://www.w3.org/Graphics/SVG/1.1/DTD/svg11.dtd">
<!-- Generated by graphviz version 2.40.1 (20161225.0304)
 -->
<!-- Title: LinkedList.h Pages: 1 -->
<svg width="258pt" height="196pt"
 viewBox="0.00 0.00 258.00 196.00" xmlns="http://www.w3.org/2000/svg" xmlns:xlink="http://www.w3.org/1999/xlink">
<g id="graph0" class="graph" transform="scale(1 1) rotate(0) translate(4 192)">
<title>LinkedList.h</title>
<!-- Node7 -->
<g id="node1" class="node">
<title>Node7</title>
<polygon fill="#bfbfbf" stroke="#000000" points="105.5,-168.5 105.5,-187.5 174.5,-187.5 174.5,-168.5 105.5,-168.5"/>
<text text-anchor="middle" x="140" y="-175.5" font-family="Helvetica,sans-Serif" font-size="10.00" fill="#000000">LinkedList.h</text>
</g>
<!-- Node8 -->
<g id="node2" class="node">
<title>Node8</title>
<g id="a_node2"><a xlink:href="LinkedList_8cpp.html" target="_top" xlink:title="LinkedList.cpp">
<polygon fill="none" stroke="#000000" points="0,-56.5 0,-75.5 80,-75.5 80,-56.5 0,-56.5"/>
<text text-anchor="middle" x="40" y="-63.5" font-family="Helvetica,sans-Serif" font-size="10.00" fill="#000000">LinkedList.cpp</text>
</a>
</g>
</g>
<!-- Node7&#45;&gt;Node8 -->
<g id="edge1" class="edge">
<title>Node7&#45;&gt;Node8</title>
<path fill="none" stroke="#191970" d="M122.4228,-161.234C113.6698,-152.6837 103.0514,-142.0017 94,-132 76.5159,-112.6803 57.549,-88.7299 47.4021,-75.6475"/>
<polygon fill="#191970" stroke="#191970" points="120.2171,-163.9699 129.8383,-168.4065 125.0837,-158.9384 120.2171,-163.9699"/>
</g>
<!-- Node9 -->
<g id="node3" class="node">
<title>Node9</title>
<g id="a_node3"><a xlink:href="TestDocument_8cpp.html" target="_top" xlink:title="TestDocument.cpp">
<polygon fill="none" stroke="#000000" points="58,-.5 58,-19.5 158,-19.5 158,-.5 58,-.5"/>
<text text-anchor="middle" x="108" y="-7.5" font-family="Helvetica,sans-Serif" font-size="10.00" fill="#000000">TestDocument.cpp</text>
</a>
</g>
</g>
<!-- Node7&#45;&gt;Node9 -->
<g id="edge9" class="edge">
<title>Node7&#45;&gt;Node9</title>
<path fill="none" stroke="#191970" d="M133.9369,-158.539C131.547,-150.3947 128.9202,-140.7945 127,-132 117.9465,-90.5338 111.5317,-40.2296 109.0898,-19.5639"/>
<polygon fill="#191970" stroke="#191970" points="130.6185,-159.6574 136.8629,-168.2164 137.319,-157.6314 130.6185,-159.6574"/>
</g>
<!-- Node10 -->
<g id="node4" class="node">
<title>Node10</title>
<g id="a_node4"><a xlink:href="SecKeySS_8h.html" target="_top" xlink:title="SecKeySS.h">
<polygon fill="none" stroke="#000000" points="136.5,-112.5 136.5,-131.5 209.5,-131.5 209.5,-112.5 136.5,-112.5"/>
<text text-anchor="middle" x="173" y="-119.5" font-family="Helvetica,sans-Serif" font-size="10.00" fill="#000000">SecKeySS.h</text>
</a>
</g>
</g>
<!-- Node7&#45;&gt;Node10 -->
<g id="edge3" class="edge">
<title>Node7&#45;&gt;Node10</title>
<path fill="none" stroke="#191970" d="M150.8254,-159.6296C156.3299,-150.2887 162.7937,-139.3197 167.3177,-131.6427"/>
<polygon fill="#191970" stroke="#191970" points="147.8097,-157.8532 145.7482,-168.2455 153.8405,-161.4071 147.8097,-157.8532"/>
</g>
<!-- Node11 -->
<g id="node5" class="node">
<title>Node11</title>
<g id="a_node5"><a xlink:href="SSClass_8h.html" target="_top" xlink:title="SSClass.h">
<polygon fill="none" stroke="#000000" points="179,-56.5 179,-75.5 243,-75.5 243,-56.5 179,-56.5"/>
<text text-anchor="middle" x="211" y="-63.5" font-family="Helvetica,sans-Serif" font-size="10.00" fill="#000000">SSClass.h</text>
</a>
</g>
</g>
<!-- Node7&#45;&gt;Node11 -->
<g id="edge8" class="edge">
<title>Node7&#45;&gt;Node11</title>
<path fill="none" stroke="#191970" d="M181.022,-164.1141C195.6806,-156.9429 210.6295,-146.5601 219,-132 229.2397,-114.1885 221.3722,-89.2378 215.6273,-75.687"/>
<polygon fill="#191970" stroke="#191970" points="179.2009,-161.0945 171.5032,-168.3744 182.0605,-167.4838 179.2009,-161.0945"/>
</g>
<!-- Node8&#45;&gt;Node9 -->
<g id="edge2" class="edge">
<title>Node8&#45;&gt;Node9</title>
<path fill="none" stroke="#191970" d="M59.8596,-49.645C71.6858,-39.9058 86.2892,-27.8795 96.291,-19.6427"/>
<polygon fill="#191970" stroke="#191970" points="57.339,-47.1867 51.8447,-56.2455 61.789,-52.5902 57.339,-47.1867"/>
</g>
<!-- Node10&#45;&gt;Node9 -->
<g id="edge7" class="edge">
<title>Node10&#45;&gt;Node9</title>
<path fill="none" stroke="#191970" d="M162.3053,-103.5723C148.3127,-79.4618 124.3096,-38.1028 113.5278,-19.5249"/>
<polygon fill="#191970" stroke="#191970" points="159.4115,-105.5588 167.4581,-112.4509 165.4657,-102.0451 159.4115,-105.5588"/>
</g>
<!-- Node10&#45;&gt;Node11 -->
<g id="edge4" class="edge">
<title>Node10&#45;&gt;Node11</title>
<path fill="none" stroke="#191970" d="M185.2679,-103.9209C191.6488,-94.5176 199.1931,-83.3997 204.4568,-75.6427"/>
<polygon fill="#191970" stroke="#191970" points="182.338,-102.0055 179.6191,-112.2455 188.1303,-105.936 182.338,-102.0055"/>
</g>
<!-- Node11&#45;&gt;Node9 -->
<g id="edge6" class="edge">
<title>Node11&#45;&gt;Node9</title>
<path fill="none" stroke="#191970" d="M184.2568,-51.46C165.825,-41.4388 141.8416,-28.3993 125.7356,-19.6427"/>
<polygon fill="#191970" stroke="#191970" points="182.6015,-54.5438 193.0588,-56.2455 185.9451,-48.394 182.6015,-54.5438"/>
</g>
<!-- Node12 -->
<g id="node6" class="node">
<title>Node12</title>
<g id="a_node6"><a xlink:href="SSClass_8cpp.html" target="_top" xlink:title="SSClass.cpp">
<polygon fill="none" stroke="#000000" points="176,-.5 176,-19.5 250,-19.5 250,-.5 176,-.5"/>
<text text-anchor="middle" x="213" y="-7.5" font-family="Helvetica,sans-Serif" font-size="10.00" fill="#000000">SSClass.cpp</text>
</a>
</g>
</g>
<!-- Node11&#45;&gt;Node12 -->
<g id="edge5" class="edge">
<title>Node11&#45;&gt;Node12</title>
<path fill="none" stroke="#191970" d="M211.7087,-46.1575C212.0302,-37.155 212.3957,-26.9199 212.6556,-19.6427"/>
<polygon fill="#191970" stroke="#191970" points="208.2076,-46.127 211.3484,-56.2455 215.2032,-46.3769 208.2076,-46.127"/>
</g>
</g>
</svg>
