<?xml version="1.0" encoding="UTF-8" standalone="no"?>
<!DOCTYPE svg PUBLIC "-//W3C//DTD SVG 1.1//EN"
 "http://www.w3.org/Graphics/SVG/1.1/DTD/svg11.dtd">
<!-- Generated by graphviz version 2.40.1 (20161225.0304)
 -->
<!-- Title: LinkedList.cpp Pages: 1 -->
<svg width="572pt" height="196pt"
 viewBox="0.00 0.00 572.00 196.00" xmlns="http://www.w3.org/2000/svg" xmlns:xlink="http://www.w3.org/1999/xlink">
<g id="graph0" class="graph" transform="scale(1 1) rotate(0) translate(4 192)">
<title>LinkedList.cpp</title>
<!-- Node0 -->
<g id="node1" class="node">
<title>Node0</title>
<polygon fill="#bfbfbf" stroke="#000000" points="297,-168.5 297,-187.5 377,-187.5 377,-168.5 297,-168.5"/>
<text text-anchor="middle" x="337" y="-175.5" font-family="Helvetica,sans-Serif" font-size="10.00" fill="#000000">LinkedList.cpp</text>
</g>
<!-- Node1 -->
<g id="node2" class="node">
<title>Node1</title>
<g id="a_node2"><a xlink:href="LinkedList_8h.html" target="_top" xlink:title="LinkedList.h">
<polygon fill="none" stroke="#000000" points="181.5,-112.5 181.5,-131.5 250.5,-131.5 250.5,-112.5 181.5,-112.5"/>
<text text-anchor="middle" x="216" y="-119.5" font-family="Helvetica,sans-Serif" font-size="10.00" fill="#000000">LinkedList.h</text>
</a>
</g>
</g>
<!-- Node0&#45;&gt;Node1 -->
<g id="edge1" class="edge">
<title>Node0&#45;&gt;Node1</title>
<path fill="none" stroke="#191970" d="M316.1994,-168.3733C296.7757,-159.3838 267.5776,-145.8706 245.7036,-135.7471"/>
<polygon fill="#191970" stroke="#191970" points="247.0745,-132.5249 236.5292,-131.5011 244.1344,-138.8776 247.0745,-132.5249"/>
</g>
<!-- Node3 -->
<g id="node4" class="node">
<title>Node3</title>
<polygon fill="none" stroke="#bfbfbf" points="194,-.5 194,-19.5 238,-19.5 238,-.5 194,-.5"/>
<text text-anchor="middle" x="216" y="-7.5" font-family="Helvetica,sans-Serif" font-size="10.00" fill="#000000">vector</text>
</g>
<!-- Node0&#45;&gt;Node3 -->
<g id="edge14" class="edge">
<title>Node0&#45;&gt;Node3</title>
<path fill="none" stroke="#191970" d="M347.96,-168.3335C371.2951,-146.5942 421.5139,-92.8715 393,-56 375.4312,-33.2816 294.3018,-19.7004 248.2185,-13.6876"/>
<polygon fill="#191970" stroke="#191970" points="248.4927,-10.1946 238.1341,-12.4195 247.6193,-17.1399 248.4927,-10.1946"/>
</g>
<!-- Node4 -->
<g id="node5" class="node">
<title>Node4</title>
<g id="a_node5"><a xlink:href="Node_8h.html" target="_top" xlink:title="Node.h">
<polygon fill="none" stroke="#000000" points="0,-56.5 0,-75.5 48,-75.5 48,-56.5 0,-56.5"/>
<text text-anchor="middle" x="24" y="-63.5" font-family="Helvetica,sans-Serif" font-size="10.00" fill="#000000">Node.h</text>
</a>
</g>
</g>
<!-- Node0&#45;&gt;Node4 -->
<g id="edge9" class="edge">
<title>Node0&#45;&gt;Node4</title>
<path fill="none" stroke="#191970" d="M296.7418,-172.0919C256.1956,-165.3404 192.3233,-152.4956 140,-132 105.4895,-118.4819 68.8162,-96.0886 46.1571,-81.1894"/>
<polygon fill="#191970" stroke="#191970" points="47.8925,-78.1398 37.6317,-75.5006 44.0072,-83.9625 47.8925,-78.1398"/>
</g>
<!-- Node5 -->
<g id="node6" class="node">
<title>Node5</title>
<polygon fill="none" stroke="#bfbfbf" points="66,-56.5 66,-75.5 120,-75.5 120,-56.5 66,-56.5"/>
<text text-anchor="middle" x="93" y="-63.5" font-family="Helvetica,sans-Serif" font-size="10.00" fill="#000000">iostream</text>
</g>
<!-- Node0&#45;&gt;Node5 -->
<g id="edge12" class="edge">
<title>Node0&#45;&gt;Node5</title>
<path fill="none" stroke="#191970" d="M296.9,-171.7414C262.3452,-165.2236 211.88,-152.9617 172,-132 147.707,-119.2311 124.1323,-98.0327 109.1555,-83.1124"/>
<polygon fill="#191970" stroke="#191970" points="111.2645,-80.2632 101.7696,-75.5625 106.2607,-85.1584 111.2645,-80.2632"/>
</g>
<!-- Node6 -->
<g id="node7" class="node">
<title>Node6</title>
<polygon fill="none" stroke="#bfbfbf" points="274,-56.5 274,-75.5 324,-75.5 324,-56.5 274,-56.5"/>
<text text-anchor="middle" x="299" y="-63.5" font-family="Helvetica,sans-Serif" font-size="10.00" fill="#000000">fstream</text>
</g>
<!-- Node0&#45;&gt;Node6 -->
<g id="edge11" class="edge">
<title>Node0&#45;&gt;Node6</title>
<path fill="none" stroke="#191970" d="M333.7601,-168.4509C327.5063,-150.0186 313.6658,-109.2254 305.461,-85.043"/>
<polygon fill="#191970" stroke="#191970" points="308.7591,-83.8701 302.2317,-75.5249 302.1303,-86.1192 308.7591,-83.8701"/>
</g>
<!-- Node7 -->
<g id="node8" class="node">
<title>Node7</title>
<polygon fill="none" stroke="#bfbfbf" points="342.5,-56.5 342.5,-75.5 383.5,-75.5 383.5,-56.5 342.5,-56.5"/>
<text text-anchor="middle" x="363" y="-63.5" font-family="Helvetica,sans-Serif" font-size="10.00" fill="#000000">string</text>
</g>
<!-- Node0&#45;&gt;Node7 -->
<g id="edge13" class="edge">
<title>Node0&#45;&gt;Node7</title>
<path fill="none" stroke="#191970" d="M339.2167,-168.4509C343.4765,-150.1013 352.8807,-109.5908 358.5035,-85.3693"/>
<polygon fill="#191970" stroke="#191970" points="361.9368,-86.0573 360.7889,-75.5249 355.1182,-84.4744 361.9368,-86.0573"/>
</g>
<!-- Node8 -->
<g id="node9" class="node">
<title>Node8</title>
<polygon fill="none" stroke="#bfbfbf" points="440.5,-112.5 440.5,-131.5 489.5,-131.5 489.5,-112.5 440.5,-112.5"/>
<text text-anchor="middle" x="465" y="-119.5" font-family="Helvetica,sans-Serif" font-size="10.00" fill="#000000">cassert</text>
</g>
<!-- Node0&#45;&gt;Node8 -->
<g id="edge10" class="edge">
<title>Node0&#45;&gt;Node8</title>
<path fill="none" stroke="#191970" d="M359.004,-168.3733C379.6435,-159.3435 410.7158,-145.7494 433.8889,-135.6111"/>
<polygon fill="#191970" stroke="#191970" points="435.5245,-138.7159 443.2831,-131.5011 432.7187,-132.3028 435.5245,-138.7159"/>
</g>
<!-- Node9 -->
<g id="node10" class="node">
<title>Node9</title>
<polygon fill="none" stroke="#bfbfbf" points="508,-112.5 508,-131.5 564,-131.5 564,-112.5 508,-112.5"/>
<text text-anchor="middle" x="536" y="-119.5" font-family="Helvetica,sans-Serif" font-size="10.00" fill="#000000">algorithm</text>
</g>
<!-- Node0&#45;&gt;Node9 -->
<g id="edge15" class="edge">
<title>Node0&#45;&gt;Node9</title>
<path fill="none" stroke="#191970" d="M371.2093,-168.3733C406.4566,-158.4544 461.2747,-143.0282 497.889,-132.7247"/>
<polygon fill="#191970" stroke="#191970" points="499.024,-136.0413 507.702,-129.9633 497.1277,-129.3031 499.024,-136.0413"/>
</g>
<!-- Node2 -->
<g id="node3" class="node">
<title>Node2</title>
<g id="a_node3"><a xlink:href="ListInterface_8h.html" target="_top" xlink:title="ListInterface.h">
<polygon fill="none" stroke="#000000" points="176.5,-56.5 176.5,-75.5 255.5,-75.5 255.5,-56.5 176.5,-56.5"/>
<text text-anchor="middle" x="216" y="-63.5" font-family="Helvetica,sans-Serif" font-size="10.00" fill="#000000">ListInterface.h</text>
</a>
</g>
</g>
<!-- Node1&#45;&gt;Node2 -->
<g id="edge2" class="edge">
<title>Node1&#45;&gt;Node2</title>
<path fill="none" stroke="#191970" d="M216,-112.2455C216,-104.9382 216,-94.6944 216,-85.7046"/>
<polygon fill="#191970" stroke="#191970" points="219.5001,-85.6426 216,-75.6427 212.5001,-85.6427 219.5001,-85.6426"/>
</g>
<!-- Node1&#45;&gt;Node3 -->
<g id="edge8" class="edge">
<title>Node1&#45;&gt;Node3</title>
<path fill="none" stroke="#191970" d="M200.382,-112.4791C188.7528,-104.3972 173.7668,-91.6339 167,-76 158.7454,-56.9287 175.7356,-38.1991 191.9221,-25.593"/>
<polygon fill="#191970" stroke="#191970" points="194.1472,-28.3025 200.1753,-19.5896 190.0296,-22.6416 194.1472,-28.3025"/>
</g>
<!-- Node1&#45;&gt;Node4 -->
<g id="edge4" class="edge">
<title>Node1&#45;&gt;Node4</title>
<path fill="none" stroke="#191970" d="M182.4635,-112.4305C152.2726,-103.7863 106.4392,-90.5909 57.8836,-76.2384"/>
<polygon fill="#191970" stroke="#191970" points="58.7222,-72.8366 48.14,-73.3535 56.7349,-79.5486 58.7222,-72.8366"/>
</g>
<!-- Node1&#45;&gt;Node5 -->
<g id="edge5" class="edge">
<title>Node1&#45;&gt;Node5</title>
<path fill="none" stroke="#191970" d="M194.8555,-112.3733C175.1108,-103.3838 145.4302,-89.8706 123.1945,-79.7471"/>
<polygon fill="#191970" stroke="#191970" points="124.42,-76.4594 113.8685,-75.5011 121.5194,-82.8302 124.42,-76.4594"/>
</g>
<!-- Node1&#45;&gt;Node6 -->
<g id="edge6" class="edge">
<title>Node1&#45;&gt;Node6</title>
<path fill="none" stroke="#191970" d="M230.4575,-112.2455C243.0732,-103.7337 261.5944,-91.2375 276.2045,-81.3801"/>
<polygon fill="#191970" stroke="#191970" points="278.3761,-84.1371 284.7082,-75.6427 274.4609,-78.3343 278.3761,-84.1371"/>
</g>
<!-- Node1&#45;&gt;Node7 -->
<g id="edge7" class="edge">
<title>Node1&#45;&gt;Node7</title>
<path fill="none" stroke="#191970" d="M241.2702,-112.3733C266.7126,-102.6809 305.9593,-87.7298 332.9743,-77.4384"/>
<polygon fill="#191970" stroke="#191970" points="334.2266,-80.7067 342.3255,-73.876 331.7346,-74.1653 334.2266,-80.7067"/>
</g>
<!-- Node2&#45;&gt;Node3 -->
<g id="edge3" class="edge">
<title>Node2&#45;&gt;Node3</title>
<path fill="none" stroke="#191970" d="M216,-56.2455C216,-48.9382 216,-38.6944 216,-29.7046"/>
<polygon fill="#191970" stroke="#191970" points="219.5001,-29.6426 216,-19.6427 212.5001,-29.6427 219.5001,-29.6426"/>
</g>
</g>
</svg>
