<?xml version="1.0" encoding="UTF-8" standalone="no"?>
<!DOCTYPE svg PUBLIC "-//W3C//DTD SVG 1.1//EN"
 "http://www.w3.org/Graphics/SVG/1.1/DTD/svg11.dtd">
<!-- Generated by graphviz version 2.40.1 (20161225.0304)
 -->
<!-- Title: ListInterface.h Pages: 1 -->
<svg width="275pt" height="252pt"
 viewBox="0.00 0.00 275.00 252.00" xmlns="http://www.w3.org/2000/svg" xmlns:xlink="http://www.w3.org/1999/xlink">
<g id="graph0" class="graph" transform="scale(1 1) rotate(0) translate(4 248)">
<title>ListInterface.h</title>
<!-- Node2 -->
<g id="node1" class="node">
<title>Node2</title>
<polygon fill="#bfbfbf" stroke="#000000" points="184.5,-224.5 184.5,-243.5 263.5,-243.5 263.5,-224.5 184.5,-224.5"/>
<text text-anchor="middle" x="224" y="-231.5" font-family="Helvetica,sans-Serif" font-size="10.00" fill="#000000">ListInterface.h</text>
</g>
<!-- Node3 -->
<g id="node2" class="node">
<title>Node3</title>
<g id="a_node2"><a xlink:href="LinkedList_8h.html" target="_top" xlink:title="LinkedList.h">
<polygon fill="none" stroke="#000000" points="138.5,-168.5 138.5,-187.5 207.5,-187.5 207.5,-168.5 138.5,-168.5"/>
<text text-anchor="middle" x="173" y="-175.5" font-family="Helvetica,sans-Serif" font-size="10.00" fill="#000000">LinkedList.h</text>
</a>
</g>
</g>
<!-- Node2&#45;&gt;Node3 -->
<g id="edge1" class="edge">
<title>Node2&#45;&gt;Node3</title>
<path fill="none" stroke="#191970" d="M208.3251,-216.7884C199.6006,-207.2085 189.0646,-195.6396 181.7817,-187.6427"/>
<polygon fill="#191970" stroke="#191970" points="205.7954,-219.2088 215.1165,-224.2455 210.9709,-214.4954 205.7954,-219.2088"/>
</g>
<!-- Node7 -->
<g id="node6" class="node">
<title>Node7</title>
<g id="a_node6"><a xlink:href="SSClass_8h.html" target="_top" xlink:title="SSClass.h">
<polygon fill="none" stroke="#000000" points="198,-56.5 198,-75.5 262,-75.5 262,-56.5 198,-56.5"/>
<text text-anchor="middle" x="230" y="-63.5" font-family="Helvetica,sans-Serif" font-size="10.00" fill="#000000">SSClass.h</text>
</a>
</g>
</g>
<!-- Node2&#45;&gt;Node7 -->
<g id="edge11" class="edge">
<title>Node2&#45;&gt;Node7</title>
<path fill="none" stroke="#191970" d="M227.9416,-214.1978C232.2789,-190.09 238.3456,-148.1188 236,-112 235.1858,-99.4625 233.1359,-85.1236 231.6586,-75.8343"/>
<polygon fill="#191970" stroke="#191970" points="224.4667,-213.7378 226.0513,-224.2135 231.3453,-215.0361 224.4667,-213.7378"/>
</g>
<!-- Node4 -->
<g id="node3" class="node">
<title>Node4</title>
<g id="a_node3"><a xlink:href="LinkedList_8cpp.html" target="_top" xlink:title="LinkedList.cpp">
<polygon fill="none" stroke="#000000" points="0,-56.5 0,-75.5 80,-75.5 80,-56.5 0,-56.5"/>
<text text-anchor="middle" x="40" y="-63.5" font-family="Helvetica,sans-Serif" font-size="10.00" fill="#000000">LinkedList.cpp</text>
</a>
</g>
</g>
<!-- Node3&#45;&gt;Node4 -->
<g id="edge2" class="edge">
<title>Node3&#45;&gt;Node4</title>
<path fill="none" stroke="#191970" d="M143.0476,-163.8239C127.5363,-155.7028 108.7999,-144.6229 94,-132 73.9496,-114.899 55.675,-89.6707 46.4003,-75.8848"/>
<polygon fill="#191970" stroke="#191970" points="141.7239,-167.0771 152.2247,-168.4854 144.894,-160.8361 141.7239,-167.0771"/>
</g>
<!-- Node5 -->
<g id="node4" class="node">
<title>Node5</title>
<g id="a_node4"><a xlink:href="TestDocument_8cpp.html" target="_top" xlink:title="TestDocument.cpp">
<polygon fill="none" stroke="#000000" points="64,-.5 64,-19.5 164,-19.5 164,-.5 64,-.5"/>
<text text-anchor="middle" x="114" y="-7.5" font-family="Helvetica,sans-Serif" font-size="10.00" fill="#000000">TestDocument.cpp</text>
</a>
</g>
</g>
<!-- Node3&#45;&gt;Node5 -->
<g id="edge10" class="edge">
<title>Node3&#45;&gt;Node5</title>
<path fill="none" stroke="#191970" d="M151.7159,-161.7113C142.8824,-153.7538 133.4416,-143.43 128,-132 109.763,-93.6937 111.4192,-41.2216 113.0608,-19.7542"/>
<polygon fill="#191970" stroke="#191970" points="149.6303,-164.5314 159.5254,-168.3179 154.1513,-159.1872 149.6303,-164.5314"/>
</g>
<!-- Node6 -->
<g id="node5" class="node">
<title>Node6</title>
<g id="a_node5"><a xlink:href="SecKeySS_8h.html" target="_top" xlink:title="SecKeySS.h">
<polygon fill="none" stroke="#000000" points="136.5,-112.5 136.5,-131.5 209.5,-131.5 209.5,-112.5 136.5,-112.5"/>
<text text-anchor="middle" x="173" y="-119.5" font-family="Helvetica,sans-Serif" font-size="10.00" fill="#000000">SecKeySS.h</text>
</a>
</g>
</g>
<!-- Node3&#45;&gt;Node6 -->
<g id="edge4" class="edge">
<title>Node3&#45;&gt;Node6</title>
<path fill="none" stroke="#191970" d="M173,-158.1575C173,-149.155 173,-138.9199 173,-131.6427"/>
<polygon fill="#191970" stroke="#191970" points="169.5001,-158.2455 173,-168.2455 176.5001,-158.2456 169.5001,-158.2455"/>
</g>
<!-- Node3&#45;&gt;Node7 -->
<g id="edge9" class="edge">
<title>Node3&#45;&gt;Node7</title>
<path fill="none" stroke="#191970" d="M194.4837,-161.664C203.4599,-153.6972 213.1441,-143.3792 219,-132 228.4615,-113.6145 230.0837,-88.888 230.1938,-75.5271"/>
<polygon fill="#191970" stroke="#191970" points="191.9952,-159.1824 186.5694,-168.2824 196.4859,-164.5522 191.9952,-159.1824"/>
</g>
<!-- Node4&#45;&gt;Node5 -->
<g id="edge3" class="edge">
<title>Node4&#45;&gt;Node5</title>
<path fill="none" stroke="#191970" d="M60.8657,-50.2097C73.8625,-40.3743 90.1622,-28.0394 101.2579,-19.6427"/>
<polygon fill="#191970" stroke="#191970" points="58.7518,-47.4201 52.8898,-56.2455 62.976,-53.002 58.7518,-47.4201"/>
</g>
<!-- Node6&#45;&gt;Node5 -->
<g id="edge8" class="edge">
<title>Node6&#45;&gt;Node5</title>
<path fill="none" stroke="#191970" d="M163.2925,-103.5723C150.5915,-79.4618 128.8041,-38.1028 119.0176,-19.5249"/>
<polygon fill="#191970" stroke="#191970" points="160.2123,-105.2347 167.9697,-112.4509 166.4055,-101.9722 160.2123,-105.2347"/>
</g>
<!-- Node6&#45;&gt;Node7 -->
<g id="edge5" class="edge">
<title>Node6&#45;&gt;Node7</title>
<path fill="none" stroke="#191970" d="M190.2271,-105.0751C200.0341,-95.4402 211.964,-83.7196 220.1851,-75.6427"/>
<polygon fill="#191970" stroke="#191970" points="187.6091,-102.7406 182.9286,-112.2455 192.5149,-107.734 187.6091,-102.7406"/>
</g>
<!-- Node7&#45;&gt;Node5 -->
<g id="edge7" class="edge">
<title>Node7&#45;&gt;Node5</title>
<path fill="none" stroke="#191970" d="M200.9463,-51.9741C179.9435,-41.8348 152.1309,-28.408 133.6809,-19.5011"/>
<polygon fill="#191970" stroke="#191970" points="199.5317,-55.1776 210.0589,-56.3733 202.575,-48.8738 199.5317,-55.1776"/>
</g>
<!-- Node8 -->
<g id="node7" class="node">
<title>Node8</title>
<g id="a_node7"><a xlink:href="SSClass_8cpp.html" target="_top" xlink:title="SSClass.cpp">
<polygon fill="none" stroke="#000000" points="193,-.5 193,-19.5 267,-19.5 267,-.5 193,-.5"/>
<text text-anchor="middle" x="230" y="-7.5" font-family="Helvetica,sans-Serif" font-size="10.00" fill="#000000">SSClass.cpp</text>
</a>
</g>
</g>
<!-- Node7&#45;&gt;Node8 -->
<g id="edge6" class="edge">
<title>Node7&#45;&gt;Node8</title>
<path fill="none" stroke="#191970" d="M230,-46.1575C230,-37.155 230,-26.9199 230,-19.6427"/>
<polygon fill="#191970" stroke="#191970" points="226.5001,-46.2455 230,-56.2455 233.5001,-46.2456 226.5001,-46.2455"/>
</g>
</g>
</svg>
