<?xml version="1.0" encoding="UTF-8" standalone="no"?>
<!DOCTYPE svg PUBLIC "-//W3C//DTD SVG 1.1//EN"
 "http://www.w3.org/Graphics/SVG/1.1/DTD/svg11.dtd">
<!-- Generated by graphviz version 2.40.1 (20161225.0304)
 -->
<!-- Title: SecKeySS.h Pages: 1 -->
<svg width="200pt" height="140pt"
 viewBox="0.00 0.00 200.00 140.00" xmlns="http://www.w3.org/2000/svg" xmlns:xlink="http://www.w3.org/1999/xlink">
<g id="graph0" class="graph" transform="scale(1 1) rotate(0) translate(4 136)">
<title>SecKeySS.h</title>
<!-- Node8 -->
<g id="node1" class="node">
<title>Node8</title>
<polygon fill="#bfbfbf" stroke="#000000" points="75.5,-112.5 75.5,-131.5 148.5,-131.5 148.5,-112.5 75.5,-112.5"/>
<text text-anchor="middle" x="112" y="-119.5" font-family="Helvetica,sans-Serif" font-size="10.00" fill="#000000">SecKeySS.h</text>
</g>
<!-- Node9 -->
<g id="node2" class="node">
<title>Node9</title>
<g id="a_node2"><a xlink:href="SSClass_8h.html" target="_top" xlink:title="SSClass.h">
<polygon fill="none" stroke="#000000" points="50,-56.5 50,-75.5 114,-75.5 114,-56.5 50,-56.5"/>
<text text-anchor="middle" x="82" y="-63.5" font-family="Helvetica,sans-Serif" font-size="10.00" fill="#000000">SSClass.h</text>
</a>
</g>
</g>
<!-- Node8&#45;&gt;Node9 -->
<g id="edge1" class="edge">
<title>Node8&#45;&gt;Node9</title>
<path fill="none" stroke="#191970" d="M102.002,-103.3372C97.0324,-94.0605 91.2356,-83.2398 87.1657,-75.6427"/>
<polygon fill="#191970" stroke="#191970" points="98.9669,-105.0835 106.7744,-112.2455 105.1373,-101.7779 98.9669,-105.0835"/>
</g>
<!-- Node11 -->
<g id="node4" class="node">
<title>Node11</title>
<g id="a_node4"><a xlink:href="TestDocument_8cpp.html" target="_top" xlink:title="TestDocument.cpp">
<polygon fill="none" stroke="#000000" points="92,-.5 92,-19.5 192,-19.5 192,-.5 92,-.5"/>
<text text-anchor="middle" x="142" y="-7.5" font-family="Helvetica,sans-Serif" font-size="10.00" fill="#000000">TestDocument.cpp</text>
</a>
</g>
</g>
<!-- Node8&#45;&gt;Node11 -->
<g id="edge4" class="edge">
<title>Node8&#45;&gt;Node11</title>
<path fill="none" stroke="#191970" d="M117.1968,-102.5987C123.6885,-78.363 134.5388,-37.8551 139.4487,-19.5249"/>
<polygon fill="#191970" stroke="#191970" points="113.7644,-101.8859 114.5578,-112.4509 120.526,-103.6971 113.7644,-101.8859"/>
</g>
<!-- Node10 -->
<g id="node3" class="node">
<title>Node10</title>
<g id="a_node3"><a xlink:href="SSClass_8cpp.html" target="_top" xlink:title="SSClass.cpp">
<polygon fill="none" stroke="#000000" points="0,-.5 0,-19.5 74,-19.5 74,-.5 0,-.5"/>
<text text-anchor="middle" x="37" y="-7.5" font-family="Helvetica,sans-Serif" font-size="10.00" fill="#000000">SSClass.cpp</text>
</a>
</g>
</g>
<!-- Node9&#45;&gt;Node10 -->
<g id="edge2" class="edge">
<title>Node9&#45;&gt;Node10</title>
<path fill="none" stroke="#191970" d="M67.7054,-48.2112C60.1004,-38.7472 51.0462,-27.4797 44.7486,-19.6427"/>
<polygon fill="#191970" stroke="#191970" points="65.1694,-50.6428 74.1616,-56.2455 70.6259,-46.2581 65.1694,-50.6428"/>
</g>
<!-- Node9&#45;&gt;Node11 -->
<g id="edge3" class="edge">
<title>Node9&#45;&gt;Node11</title>
<path fill="none" stroke="#191970" d="M99.8278,-49.3607C110.2078,-39.6727 122.9291,-27.7995 131.6686,-19.6427"/>
<polygon fill="#191970" stroke="#191970" points="97.3737,-46.8636 92.4512,-56.2455 102.1499,-51.981 97.3737,-46.8636"/>
</g>
</g>
</svg>
