<?xml version="1.0" encoding="UTF-8" standalone="no"?>
<!DOCTYPE svg PUBLIC "-//W3C//DTD SVG 1.1//EN"
 "http://www.w3.org/Graphics/SVG/1.1/DTD/svg11.dtd">
<!-- Generated by graphviz version 2.40.1 (20161225.0304)
 -->
<!-- Title: SSClass.h Pages: 1 -->
<svg width="491pt" height="252pt"
 viewBox="0.00 0.00 491.00 252.00" xmlns="http://www.w3.org/2000/svg" xmlns:xlink="http://www.w3.org/1999/xlink">
<g id="graph0" class="graph" transform="scale(1 1) rotate(0) translate(4 248)">
<title>SSClass.h</title>
<!-- Node0 -->
<g id="node1" class="node">
<title>Node0</title>
<polygon fill="#bfbfbf" stroke="#000000" points="242,-224.5 242,-243.5 306,-243.5 306,-224.5 242,-224.5"/>
<text text-anchor="middle" x="274" y="-231.5" font-family="Helvetica,sans-Serif" font-size="10.00" fill="#000000">SSClass.h</text>
</g>
<!-- Node1 -->
<g id="node2" class="node">
<title>Node1</title>
<polygon fill="none" stroke="#bfbfbf" points="0,-56.5 0,-75.5 54,-75.5 54,-56.5 0,-56.5"/>
<text text-anchor="middle" x="27" y="-63.5" font-family="Helvetica,sans-Serif" font-size="10.00" fill="#000000">iostream</text>
</g>
<!-- Node0&#45;&gt;Node1 -->
<g id="edge1" class="edge">
<title>Node0&#45;&gt;Node1</title>
<path fill="none" stroke="#191970" d="M241.6573,-230.5885C190.5223,-224.5786 94.2101,-210.5604 69,-188 39.35,-161.4663 30.6253,-113.0195 28.0622,-85.8423"/>
<polygon fill="#191970" stroke="#191970" points="31.5341,-85.3341 27.298,-75.623 24.5536,-85.8562 31.5341,-85.3341"/>
</g>
<!-- Node2 -->
<g id="node3" class="node">
<title>Node2</title>
<polygon fill="none" stroke="#bfbfbf" points="74.5,-56.5 74.5,-75.5 115.5,-75.5 115.5,-56.5 74.5,-56.5"/>
<text text-anchor="middle" x="95" y="-63.5" font-family="Helvetica,sans-Serif" font-size="10.00" fill="#000000">string</text>
</g>
<!-- Node0&#45;&gt;Node2 -->
<g id="edge2" class="edge">
<title>Node0&#45;&gt;Node2</title>
<path fill="none" stroke="#191970" d="M241.6147,-231.0064C192.1724,-225.6912 101.5286,-212.76 82,-188 58.5934,-158.3231 73.881,-111.172 85.4671,-85.0293"/>
<polygon fill="#191970" stroke="#191970" points="88.7092,-86.3591 89.7862,-75.8191 82.3715,-83.387 88.7092,-86.3591"/>
</g>
<!-- Node3 -->
<g id="node4" class="node">
<title>Node3</title>
<polygon fill="none" stroke="#bfbfbf" points="325,-.5 325,-19.5 369,-19.5 369,-.5 325,-.5"/>
<text text-anchor="middle" x="347" y="-7.5" font-family="Helvetica,sans-Serif" font-size="10.00" fill="#000000">vector</text>
</g>
<!-- Node0&#45;&gt;Node3 -->
<g id="edge3" class="edge">
<title>Node0&#45;&gt;Node3</title>
<path fill="none" stroke="#191970" d="M297.6682,-224.492C314.2372,-216.7954 335.856,-204.5185 350,-188 384.9998,-147.1244 385.5806,-128.7943 396,-76 397.7211,-67.2793 399.5308,-64.1575 396,-56 390.7663,-43.9081 380.6158,-33.5335 370.9045,-25.7139"/>
<polygon fill="#191970" stroke="#191970" points="372.7234,-22.7038 362.618,-19.5209 368.5329,-28.3109 372.7234,-22.7038"/>
</g>
<!-- Node4 -->
<g id="node5" class="node">
<title>Node4</title>
<polygon fill="none" stroke="#bfbfbf" points="173,-56.5 173,-75.5 223,-75.5 223,-56.5 173,-56.5"/>
<text text-anchor="middle" x="198" y="-63.5" font-family="Helvetica,sans-Serif" font-size="10.00" fill="#000000">fstream</text>
</g>
<!-- Node0&#45;&gt;Node4 -->
<g id="edge4" class="edge">
<title>Node0&#45;&gt;Node4</title>
<path fill="none" stroke="#191970" d="M277.8652,-224.2942C282.5062,-211.1459 288.8599,-187.121 282,-168 269.2796,-132.544 238.3183,-100.6077 217.7496,-82.2631"/>
<polygon fill="#191970" stroke="#191970" points="220.0245,-79.6031 210.1749,-75.6998 215.4406,-84.8934 220.0245,-79.6031"/>
</g>
<!-- Node5 -->
<g id="node6" class="node">
<title>Node5</title>
<polygon fill="none" stroke="#bfbfbf" points="221,-168.5 221,-187.5 273,-187.5 273,-168.5 221,-168.5"/>
<text text-anchor="middle" x="247" y="-175.5" font-family="Helvetica,sans-Serif" font-size="10.00" fill="#000000">sstream</text>
</g>
<!-- Node0&#45;&gt;Node5 -->
<g id="edge5" class="edge">
<title>Node0&#45;&gt;Node5</title>
<path fill="none" stroke="#191970" d="M269.297,-224.2455C265.6576,-216.6973 260.5076,-206.0158 256.0738,-196.8197"/>
<polygon fill="#191970" stroke="#191970" points="259.1449,-195.1303 251.6491,-187.6427 252.8395,-198.1704 259.1449,-195.1303"/>
</g>
<!-- Node6 -->
<g id="node7" class="node">
<title>Node6</title>
<g id="a_node7"><a xlink:href="LinkedList_8h.html" target="_top" xlink:title="LinkedList.h">
<polygon fill="none" stroke="#000000" points="134.5,-112.5 134.5,-131.5 203.5,-131.5 203.5,-112.5 134.5,-112.5"/>
<text text-anchor="middle" x="169" y="-119.5" font-family="Helvetica,sans-Serif" font-size="10.00" fill="#000000">LinkedList.h</text>
</a>
</g>
</g>
<!-- Node0&#45;&gt;Node6 -->
<g id="edge6" class="edge">
<title>Node0&#45;&gt;Node6</title>
<path fill="none" stroke="#191970" d="M257.9995,-224.4023C244.6949,-215.9183 225.7767,-202.6421 212,-188 198.577,-173.7339 186.7134,-154.7705 178.8663,-140.8321"/>
<polygon fill="#191970" stroke="#191970" points="181.7545,-138.8175 173.8974,-131.71 175.6073,-142.166 181.7545,-138.8175"/>
</g>
<!-- Node7 -->
<g id="node8" class="node">
<title>Node7</title>
<g id="a_node8"><a xlink:href="ListInterface_8h.html" target="_top" xlink:title="ListInterface.h">
<polygon fill="none" stroke="#000000" points="307.5,-56.5 307.5,-75.5 386.5,-75.5 386.5,-56.5 307.5,-56.5"/>
<text text-anchor="middle" x="347" y="-63.5" font-family="Helvetica,sans-Serif" font-size="10.00" fill="#000000">ListInterface.h</text>
</a>
</g>
</g>
<!-- Node0&#45;&gt;Node7 -->
<g id="edge17" class="edge">
<title>Node0&#45;&gt;Node7</title>
<path fill="none" stroke="#191970" d="M292.6692,-224.393C305.9635,-216.5028 323.0072,-204.0278 332,-188 350.1104,-155.7219 350.5665,-111.1829 348.9769,-85.8116"/>
<polygon fill="#191970" stroke="#191970" points="352.4475,-85.3042 348.1587,-75.6163 345.47,-85.8642 352.4475,-85.3042"/>
</g>
<!-- Node8 -->
<g id="node9" class="node">
<title>Node8</title>
<g id="a_node9"><a xlink:href="Node_8h.html" target="_top" xlink:title="Node.h">
<polygon fill="none" stroke="#000000" points="241,-56.5 241,-75.5 289,-75.5 289,-56.5 241,-56.5"/>
<text text-anchor="middle" x="265" y="-63.5" font-family="Helvetica,sans-Serif" font-size="10.00" fill="#000000">Node.h</text>
</a>
</g>
</g>
<!-- Node0&#45;&gt;Node8 -->
<g id="edge14" class="edge">
<title>Node0&#45;&gt;Node8</title>
<path fill="none" stroke="#191970" d="M286.7248,-224.2466C296.5407,-215.8582 309.3633,-202.7955 315,-188 327.0252,-156.4353 328.5731,-142.9307 315,-112 309.6677,-99.8487 299.3661,-89.4938 289.4924,-81.7031"/>
<polygon fill="#191970" stroke="#191970" points="291.5509,-78.8723 281.4177,-75.7788 287.41,-84.5162 291.5509,-78.8723"/>
</g>
<!-- Node9 -->
<g id="node10" class="node">
<title>Node9</title>
<g id="a_node10"><a xlink:href="SecKeySS_8h.html" target="_top" xlink:title="SecKeySS.h">
<polygon fill="none" stroke="#000000" points="91.5,-168.5 91.5,-187.5 164.5,-187.5 164.5,-168.5 91.5,-168.5"/>
<text text-anchor="middle" x="128" y="-175.5" font-family="Helvetica,sans-Serif" font-size="10.00" fill="#000000">SecKeySS.h</text>
</a>
</g>
</g>
<!-- Node0&#45;&gt;Node9 -->
<g id="edge15" class="edge">
<title>Node0&#45;&gt;Node9</title>
<path fill="none" stroke="#191970" d="M248.9017,-224.3733C225.0445,-215.2226 188.9665,-201.3844 162.429,-191.2057"/>
<polygon fill="#191970" stroke="#191970" points="163.361,-187.8145 152.7708,-187.5011 160.8541,-194.3503 163.361,-187.8145"/>
</g>
<!-- Node10 -->
<g id="node11" class="node">
<title>Node10</title>
<polygon fill="none" stroke="#bfbfbf" points="443,-168.5 443,-187.5 483,-187.5 483,-168.5 443,-168.5"/>
<text text-anchor="middle" x="463" y="-175.5" font-family="Helvetica,sans-Serif" font-size="10.00" fill="#000000">limits</text>
</g>
<!-- Node0&#45;&gt;Node10 -->
<g id="edge18" class="edge">
<title>Node0&#45;&gt;Node10</title>
<path fill="none" stroke="#191970" d="M306.0613,-224.5004C341.471,-214.0086 398.0511,-197.2441 432.7278,-186.9695"/>
<polygon fill="#191970" stroke="#191970" points="434.145,-190.2001 442.7387,-184.0034 432.1563,-183.4885 434.145,-190.2001"/>
</g>
<!-- Node6&#45;&gt;Node1 -->
<g id="edge10" class="edge">
<title>Node6&#45;&gt;Node1</title>
<path fill="none" stroke="#191970" d="M144.5893,-112.3733C121.3858,-103.2226 86.2962,-89.3844 60.4858,-79.2057"/>
<polygon fill="#191970" stroke="#191970" points="61.6789,-75.9139 51.0921,-75.5011 59.1108,-82.4258 61.6789,-75.9139"/>
</g>
<!-- Node6&#45;&gt;Node2 -->
<g id="edge12" class="edge">
<title>Node6&#45;&gt;Node2</title>
<path fill="none" stroke="#191970" d="M156.1102,-112.2455C145.0746,-103.8943 128.9708,-91.7076 116.0647,-81.9408"/>
<polygon fill="#191970" stroke="#191970" points="117.8283,-78.8862 107.7421,-75.6427 113.6041,-84.4681 117.8283,-78.8862"/>
</g>
<!-- Node6&#45;&gt;Node3 -->
<g id="edge13" class="edge">
<title>Node6&#45;&gt;Node3</title>
<path fill="none" stroke="#191970" d="M164.5767,-112.3159C158.9202,-98.3143 151.2812,-72.3115 164,-56 182.3529,-32.4629 267.2955,-19.127 314.7332,-13.3951"/>
<polygon fill="#191970" stroke="#191970" points="315.2789,-16.8553 324.8078,-12.224 314.4705,-9.9022 315.2789,-16.8553"/>
</g>
<!-- Node6&#45;&gt;Node4 -->
<g id="edge11" class="edge">
<title>Node6&#45;&gt;Node4</title>
<path fill="none" stroke="#191970" d="M174.0514,-112.2455C178.0019,-104.617 183.6097,-93.7881 188.4058,-84.5267"/>
<polygon fill="#191970" stroke="#191970" points="191.5159,-86.1321 193.0065,-75.6427 185.2999,-82.9131 191.5159,-86.1321"/>
</g>
<!-- Node6&#45;&gt;Node7 -->
<g id="edge7" class="edge">
<title>Node6&#45;&gt;Node7</title>
<path fill="none" stroke="#191970" d="M199.5993,-112.3733C229.3261,-103.021 274.6159,-88.7725 307.1456,-78.5385"/>
<polygon fill="#191970" stroke="#191970" points="308.3113,-81.8409 316.8,-75.5011 306.2105,-75.1636 308.3113,-81.8409"/>
</g>
<!-- Node6&#45;&gt;Node8 -->
<g id="edge9" class="edge">
<title>Node6&#45;&gt;Node8</title>
<path fill="none" stroke="#191970" d="M185.7219,-112.2455C200.5889,-103.5731 222.5466,-90.7645 239.5858,-80.825"/>
<polygon fill="#191970" stroke="#191970" points="241.5955,-83.7047 248.4697,-75.6427 238.0683,-77.6582 241.5955,-83.7047"/>
</g>
<!-- Node7&#45;&gt;Node3 -->
<g id="edge8" class="edge">
<title>Node7&#45;&gt;Node3</title>
<path fill="none" stroke="#191970" d="M347,-56.2455C347,-48.9382 347,-38.6944 347,-29.7046"/>
<polygon fill="#191970" stroke="#191970" points="350.5001,-29.6426 347,-19.6427 343.5001,-29.6427 350.5001,-29.6426"/>
</g>
<!-- Node9&#45;&gt;Node6 -->
<g id="edge16" class="edge">
<title>Node9&#45;&gt;Node6</title>
<path fill="none" stroke="#191970" d="M135.1417,-168.2455C140.8444,-160.4564 148.99,-149.3308 155.8625,-139.9439"/>
<polygon fill="#191970" stroke="#191970" points="158.8568,-141.7789 161.9402,-131.6427 153.2087,-137.6437 158.8568,-141.7789"/>
</g>
</g>
</svg>
