<?xml version="1.0" encoding="UTF-8" standalone="no"?>
<!DOCTYPE svg PUBLIC "-//W3C//DTD SVG 1.1//EN"
 "http://www.w3.org/Graphics/SVG/1.1/DTD/svg11.dtd">
<!-- Generated by graphviz version 2.40.1 (20161225.0304)
 -->
<!-- Title: BTreeNode&lt; T &gt; Pages: 1 -->
<svg width="179pt" height="171pt"
 viewBox="0.00 0.00 178.50 171.00" xmlns="http://www.w3.org/2000/svg" xmlns:xlink="http://www.w3.org/1999/xlink">
<g id="graph0" class="graph" transform="scale(1 1) rotate(0) translate(4 167)">
<title>BTreeNode&lt; T &gt;</title>
<!-- Node1 -->
<g id="node1" class="node">
<title>Node1</title>
<polygon fill="#bfbfbf" stroke="#000000" points="16.5,-.5 16.5,-57.5 106.5,-57.5 106.5,-.5 16.5,-.5"/>
<text text-anchor="middle" x="61.5" y="-45.5" font-family="Helvetica,sans-Serif" font-size="10.00" fill="#000000">BTreeNode&lt; T &gt;</text>
<polyline fill="none" stroke="#000000" points="16.5,-38.5 106.5,-38.5 "/>
<text text-anchor="middle" x="61.5" y="-26.5" font-family="Helvetica,sans-Serif" font-size="10.00" fill="#000000"> </text>
<polyline fill="none" stroke="#000000" points="16.5,-19.5 106.5,-19.5 "/>
<text text-anchor="middle" x="61.5" y="-7.5" font-family="Helvetica,sans-Serif" font-size="10.00" fill="#000000"> </text>
</g>
<!-- Node1&#45;&gt;Node1 -->
<g id="edge4" class="edge">
<title>Node1&#45;&gt;Node1</title>
<path fill="none" stroke="#404040" d="M106.5205,-38.5352C116.8858,-37.7135 124.5,-34.5352 124.5,-29 124.5,-25.973 122.2228,-23.6508 118.4638,-22.0334"/>
<polygon fill="none" stroke="#404040" points="118.2522,-21.988 111.5453,-24.637 106.5205,-19.4648 113.2274,-16.8158 118.2522,-21.988"/>
<text text-anchor="middle" x="147.5" y="-26.5" font-family="Helvetica,sans-Serif" font-size="10.00" fill="#000000"> +child_ptr</text>
</g>
<!-- Node2 -->
<g id="node2" class="node">
<title>Node2</title>
<polygon fill="none" stroke="#bfbfbf" points="0,-105.5 0,-162.5 29,-162.5 29,-105.5 0,-105.5"/>
<text text-anchor="middle" x="14.5" y="-150.5" font-family="Helvetica,sans-Serif" font-size="10.00" fill="#000000">int</text>
<polyline fill="none" stroke="#bfbfbf" points="0,-143.5 29,-143.5 "/>
<text text-anchor="middle" x="14.5" y="-131.5" font-family="Helvetica,sans-Serif" font-size="10.00" fill="#000000"> </text>
<polyline fill="none" stroke="#bfbfbf" points="0,-124.5 29,-124.5 "/>
<text text-anchor="middle" x="14.5" y="-112.5" font-family="Helvetica,sans-Serif" font-size="10.00" fill="#000000"> </text>
</g>
<!-- Node2&#45;&gt;Node1 -->
<g id="edge1" class="edge">
<title>Node2&#45;&gt;Node1</title>
<path fill="none" stroke="#404040" d="M27.343,-105.3083C32.3686,-94.0808 38.2192,-81.0103 43.6435,-68.8922"/>
<polygon fill="none" stroke="#404040" points="43.7698,-68.6098 42.5703,-61.4992 48.6726,-57.657 49.8721,-64.7677 43.7698,-68.6098"/>
<text text-anchor="middle" x="46" y="-79" font-family="Helvetica,sans-Serif" font-size="10.00" fill="#000000"> +n</text>
</g>
<!-- Node3 -->
<g id="node3" class="node">
<title>Node3</title>
<polygon fill="none" stroke="#bfbfbf" points="47,-105.5 47,-162.5 76,-162.5 76,-105.5 47,-105.5"/>
<text text-anchor="middle" x="61.5" y="-150.5" font-family="Helvetica,sans-Serif" font-size="10.00" fill="#000000">T *</text>
<polyline fill="none" stroke="#bfbfbf" points="47,-143.5 76,-143.5 "/>
<text text-anchor="middle" x="61.5" y="-131.5" font-family="Helvetica,sans-Serif" font-size="10.00" fill="#000000"> </text>
<polyline fill="none" stroke="#bfbfbf" points="47,-124.5 76,-124.5 "/>
<text text-anchor="middle" x="61.5" y="-112.5" font-family="Helvetica,sans-Serif" font-size="10.00" fill="#000000"> </text>
</g>
<!-- Node3&#45;&gt;Node1 -->
<g id="edge2" class="edge">
<title>Node3&#45;&gt;Node1</title>
<path fill="none" stroke="#404040" d="M61.5,-105.3083C61.5,-94.4281 61.5,-81.817 61.5,-70.0192"/>
<polygon fill="none" stroke="#404040" points="61.5001,-69.657 57.5,-63.6571 61.5,-57.657 65.5,-63.657 61.5001,-69.657"/>
<text text-anchor="middle" x="75.5" y="-79" font-family="Helvetica,sans-Serif" font-size="10.00" fill="#000000"> +data</text>
</g>
<!-- Node4 -->
<g id="node4" class="node">
<title>Node4</title>
<polygon fill="none" stroke="#bfbfbf" points="95,-105.5 95,-162.5 130,-162.5 130,-105.5 95,-105.5"/>
<text text-anchor="middle" x="112.5" y="-150.5" font-family="Helvetica,sans-Serif" font-size="10.00" fill="#000000">bool</text>
<polyline fill="none" stroke="#bfbfbf" points="95,-143.5 130,-143.5 "/>
<text text-anchor="middle" x="112.5" y="-131.5" font-family="Helvetica,sans-Serif" font-size="10.00" fill="#000000"> </text>
<polyline fill="none" stroke="#bfbfbf" points="95,-124.5 130,-124.5 "/>
<text text-anchor="middle" x="112.5" y="-112.5" font-family="Helvetica,sans-Serif" font-size="10.00" fill="#000000"> </text>
</g>
<!-- Node4&#45;&gt;Node1 -->
<g id="edge3" class="edge">
<title>Node4&#45;&gt;Node1</title>
<path fill="none" stroke="#404040" d="M102.8146,-105.2202C99.3043,-95.7495 95.0685,-85.2746 90.5,-76 89.231,-73.4237 87.8619,-70.8068 86.4335,-68.1942"/>
<polygon fill="none" stroke="#404040" points="86.3178,-67.993 79.8582,-64.7877 80.3326,-57.5921 86.7921,-60.7975 86.3178,-67.993"/>
<text text-anchor="middle" x="107" y="-79" font-family="Helvetica,sans-Serif" font-size="10.00" fill="#000000"> +leaf</text>
</g>
</g>
</svg>
