<?xml version="1.0" encoding="UTF-8" standalone="no"?>
<!DOCTYPE svg PUBLIC "-//W3C//DTD SVG 1.1//EN"
 "http://www.w3.org/Graphics/SVG/1.1/DTD/svg11.dtd">
<!-- Generated by graphviz version 2.40.1 (20161225.0304)
 -->
<!-- Title: TestDocument.cpp Pages: 1 -->
<!--zoomable 308 -->
<svg id="main" version="1.1" xmlns="http://www.w3.org/2000/svg" xmlns:xlink="http://www.w3.org/1999/xlink" xml:space="preserve" onload="init(evt)">
<style type="text/css"><![CDATA[
.edge:hover path { stroke: red; }
.edge:hover polygon { stroke: red; fill: red; }
]]></style>
<script type="text/javascript"><![CDATA[
var edges = document.getElementsByTagName('g');
if (edges && edges.length) {
  for (var i=0;i<edges.length;i++) {
    if (edges[i].id.substr(0,4)=='edge') {
      edges[i].setAttribute('class','edge');
    }
  }
}
]]></script>
        <defs>
                <circle id="rim" cx="0" cy="0" r="7"/>
                <circle id="rim2" cx="0" cy="0" r="3.5"/>
                <g id="zoomPlus">
                        <use xlink:href="#rim" fill="#404040">
                                <set attributeName="fill" to="#808080" begin="zoomplus.mouseover" end="zoomplus.mouseout"/>
                        </use>
                        <path d="M-4,0h8M0,-4v8" fill="none" stroke="white" stroke-width="1.5" pointer-events="none"/>
                </g>
                <g id="zoomMin">
                        <use xlink:href="#rim" fill="#404040">
                                <set attributeName="fill" to="#808080" begin="zoomminus.mouseover" end="zoomminus.mouseout"/>
                        </use>
                        <path d="M-4,0h8" fill="none" stroke="white" stroke-width="1.5" pointer-events="none"/>
                </g>
                <g id="dirArrow">
                        <path fill="none" stroke="white" stroke-width="1.5" d="M0,-3.0v7 M-2.5,-0.5L0,-3.0L2.5,-0.5"/>
                </g>
               <g id="resetDef">
                       <use xlink:href="#rim2" fill="#404040">
                               <set attributeName="fill" to="#808080" begin="reset.mouseover" end="reset.mouseout"/>
                       </use>
               </g>
        </defs>

<script type="text/javascript">
var viewWidth = 802;
var viewHeight = 308;
var sectionId = 'dynsection-0';
</script>
<script xlink:href="svgpan.js"/>
<svg id="graph" class="graph">
<g id="viewport">
<title>TestDocument.cpp</title>
<!-- Node0 -->
<g id="node1" class="node">
<title>Node0</title>
<polygon fill="#bfbfbf" stroke="#000000" points="409,-280.5 409,-299.5 509,-299.5 509,-280.5 409,-280.5"/>
<text text-anchor="middle" x="459" y="-287.5" font-family="Helvetica,sans-Serif" font-size="10.00" fill="#000000">TestDocument.cpp</text>
</g>
<!-- Node1 -->
<g id="node2" class="node">
<title>Node1</title>
<polygon fill="none" stroke="#bfbfbf" points="116,-56.5 116,-75.5 166,-75.5 166,-56.5 116,-56.5"/>
<text text-anchor="middle" x="141" y="-63.5" font-family="Helvetica,sans-Serif" font-size="10.00" fill="#000000">fstream</text>
</g>
<!-- Node0&#45;&gt;Node1 -->
<g id="edge1" class="edge">
<title>Node0&#45;&gt;Node1</title>
<path fill="none" stroke="#191970" d="M408.9207,-282.7477C356.3596,-274.4611 277.8357,-259.9673 252,-244 197.4416,-210.2811 191.087,-188.6423 161,-132 153.2773,-117.4611 148.0807,-99.5 144.9246,-85.9873"/>
<polygon fill="#191970" stroke="#191970" points="148.2696,-84.8945 142.7427,-75.8555 141.4265,-86.3683 148.2696,-84.8945"/>
</g>
<!-- Node2 -->
<g id="node3" class="node">
<title>Node2</title>
<polygon fill="none" stroke="#bfbfbf" points="203,-56.5 203,-75.5 257,-75.5 257,-56.5 203,-56.5"/>
<text text-anchor="middle" x="230" y="-63.5" font-family="Helvetica,sans-Serif" font-size="10.00" fill="#000000">iostream</text>
</g>
<!-- Node0&#45;&gt;Node2 -->
<g id="edge2" class="edge">
<title>Node0&#45;&gt;Node2</title>
<path fill="none" stroke="#191970" d="M408.9213,-285.2913C351.7142,-276.8362 261.2226,-253.3005 224,-188 205.6221,-155.7593 215.1741,-110.587 223.0585,-85.2292"/>
<polygon fill="#191970" stroke="#191970" points="226.4029,-86.2638 226.2492,-75.6701 219.763,-84.0475 226.4029,-86.2638"/>
</g>
<!-- Node3 -->
<g id="node4" class="node">
<title>Node3</title>
<g id="a_node4"><a xlink:href="SSClass_8h.html" target="_top" xlink:title="SSClass.h">
<polygon fill="none" stroke="#000000" points="308,-224.5 308,-243.5 372,-243.5 372,-224.5 308,-224.5"/>
<text text-anchor="middle" x="340" y="-231.5" font-family="Helvetica,sans-Serif" font-size="10.00" fill="#000000">SSClass.h</text>
</a>
</g>
</g>
<!-- Node0&#45;&gt;Node3 -->
<g id="edge3" class="edge">
<title>Node0&#45;&gt;Node3</title>
<path fill="none" stroke="#191970" d="M438.5432,-280.3733C419.5262,-271.4241 390.9825,-257.9917 369.5024,-247.8835"/>
<polygon fill="#191970" stroke="#191970" points="370.7284,-244.5923 360.1899,-243.5011 367.7478,-250.926 370.7284,-244.5923"/>
</g>
<!-- Node5 -->
<g id="node6" class="node">
<title>Node5</title>
<polygon fill="none" stroke="#bfbfbf" points="299,-.5 299,-19.5 343,-19.5 343,-.5 299,-.5"/>
<text text-anchor="middle" x="321" y="-7.5" font-family="Helvetica,sans-Serif" font-size="10.00" fill="#000000">vector</text>
</g>
<!-- Node0&#45;&gt;Node5 -->
<g id="edge22" class="edge">
<title>Node0&#45;&gt;Node5</title>
<path fill="none" stroke="#191970" d="M408.566,-288.3115C289.3303,-282.9519 0,-261.3584 0,-178 0,-178 0,-178 0,-122 0,-71.6776 45.8537,-76.0714 92,-56 158.2701,-27.1757 243.2503,-16.1908 288.7752,-12.1764"/>
<polygon fill="#191970" stroke="#191970" points="289.2546,-15.6489 298.9335,-11.3397 288.6799,-8.6725 289.2546,-15.6489"/>
</g>
<!-- Node7 -->
<g id="node8" class="node">
<title>Node7</title>
<g id="a_node8"><a xlink:href="LinkedList_8h.html" target="_top" xlink:title="LinkedList.h">
<polygon fill="none" stroke="#000000" points="359.5,-112.5 359.5,-131.5 428.5,-131.5 428.5,-112.5 359.5,-112.5"/>
<text text-anchor="middle" x="394" y="-119.5" font-family="Helvetica,sans-Serif" font-size="10.00" fill="#000000">LinkedList.h</text>
</a>
</g>
</g>
<!-- Node0&#45;&gt;Node7 -->
<g id="edge23" class="edge">
<title>Node0&#45;&gt;Node7</title>
<path fill="none" stroke="#191970" d="M468.1098,-280.4358C487.4809,-258.9059 529.021,-205.584 504,-168 489.4461,-146.1386 462.2994,-134.6477 438.6169,-128.6177"/>
<polygon fill="#191970" stroke="#191970" points="439.2551,-125.1733 428.7262,-126.3534 437.6929,-131.9968 439.2551,-125.1733"/>
</g>
<!-- Node9 -->
<g id="node10" class="node">
<title>Node9</title>
<g id="a_node10"><a xlink:href="Node_8h.html" target="_top" xlink:title="Node.h">
<polygon fill="none" stroke="#000000" points="727,-56.5 727,-75.5 775,-75.5 775,-56.5 727,-56.5"/>
<text text-anchor="middle" x="751" y="-63.5" font-family="Helvetica,sans-Serif" font-size="10.00" fill="#000000">Node.h</text>
</a>
</g>
</g>
<!-- Node0&#45;&gt;Node9 -->
<g id="edge33" class="edge">
<title>Node0&#45;&gt;Node9</title>
<path fill="none" stroke="#191970" d="M509.1484,-287.4325C582.1246,-282.8197 713.0313,-270.97 751,-244 800.2139,-209.0424 801.0642,-169.5998 783,-112 779.7504,-101.6383 773.2506,-91.5669 766.9529,-83.5026"/>
<polygon fill="#191970" stroke="#191970" points="769.4619,-81.047 760.3618,-75.6212 764.0921,-85.5376 769.4619,-81.047"/>
</g>
<!-- Node10 -->
<g id="node11" class="node">
<title>Node10</title>
<g id="a_node11"><a xlink:href="SecKeySS_8h.html" target="_top" xlink:title="SecKeySS.h">
<polygon fill="none" stroke="#000000" points="422.5,-168.5 422.5,-187.5 495.5,-187.5 495.5,-168.5 422.5,-168.5"/>
<text text-anchor="middle" x="459" y="-175.5" font-family="Helvetica,sans-Serif" font-size="10.00" fill="#000000">SecKeySS.h</text>
</a>
</g>
</g>
<!-- Node0&#45;&gt;Node10 -->
<g id="edge36" class="edge">
<title>Node0&#45;&gt;Node10</title>
<path fill="none" stroke="#191970" d="M459,-280.4509C459,-262.184 459,-221.9553 459,-197.6976"/>
<polygon fill="#191970" stroke="#191970" points="462.5001,-197.5249 459,-187.5249 455.5001,-197.5249 462.5001,-197.5249"/>
</g>
<!-- Node12 -->
<g id="node13" class="node">
<title>Node12</title>
<g id="a_node13"><a xlink:href="LinkedList_8cpp.html" target="_top" xlink:title="LinkedList.cpp">
<polygon fill="none" stroke="#000000" points="590,-168.5 590,-187.5 670,-187.5 670,-168.5 590,-168.5"/>
<text text-anchor="middle" x="630" y="-175.5" font-family="Helvetica,sans-Serif" font-size="10.00" fill="#000000">LinkedList.cpp</text>
</a>
</g>
</g>
<!-- Node0&#45;&gt;Node12 -->
<g id="edge24" class="edge">
<title>Node0&#45;&gt;Node12</title>
<path fill="none" stroke="#191970" d="M476.546,-280.4146C492.7476,-271.4162 517.3532,-257.3741 538,-244 563.0955,-227.7442 590.849,-207.505 609.2419,-193.7551"/>
<polygon fill="#191970" stroke="#191970" points="611.5763,-196.379 617.4665,-187.5724 607.3701,-190.7836 611.5763,-196.379"/>
</g>
<!-- Node15 -->
<g id="node16" class="node">
<title>Node15</title>
<g id="a_node16"><a xlink:href="Node_8cpp.html" target="_top" xlink:title="Node.cpp">
<polygon fill="none" stroke="#000000" points="682.5,-224.5 682.5,-243.5 741.5,-243.5 741.5,-224.5 682.5,-224.5"/>
<text text-anchor="middle" x="712" y="-231.5" font-family="Helvetica,sans-Serif" font-size="10.00" fill="#000000">Node.cpp</text>
</a>
</g>
</g>
<!-- Node0&#45;&gt;Node15 -->
<g id="edge34" class="edge">
<title>Node0&#45;&gt;Node15</title>
<path fill="none" stroke="#191970" d="M502.2048,-280.4369C549.9649,-269.8655 626.2409,-252.9822 672.4735,-242.749"/>
<polygon fill="#191970" stroke="#191970" points="673.4151,-246.1253 682.4224,-240.5468 671.9022,-239.2907 673.4151,-246.1253"/>
</g>
<!-- Node3&#45;&gt;Node1 -->
<g id="edge7" class="edge">
<title>Node3&#45;&gt;Node1</title>
<path fill="none" stroke="#191970" d="M307.8265,-226.774C282.9432,-219.9577 248.6848,-207.7771 224,-188 188.348,-159.4362 162.0908,-111.4674 149.4395,-84.9889"/>
<polygon fill="#191970" stroke="#191970" points="152.5062,-83.2819 145.1305,-75.676 146.1533,-86.2214 152.5062,-83.2819"/>
</g>
<!-- Node3&#45;&gt;Node2 -->
<g id="edge4" class="edge">
<title>Node3&#45;&gt;Node2</title>
<path fill="none" stroke="#191970" d="M307.7963,-228.7372C284.0308,-223.0256 253.1288,-211.3721 237,-188 215.902,-157.4271 220.3893,-111.6054 225.3332,-85.6949"/>
<polygon fill="#191970" stroke="#191970" points="228.8203,-86.1234 227.4766,-75.6141 221.9733,-84.6675 228.8203,-86.1234"/>
</g>
<!-- Node4 -->
<g id="node5" class="node">
<title>Node4</title>
<polygon fill="none" stroke="#bfbfbf" points="436.5,-56.5 436.5,-75.5 477.5,-75.5 477.5,-56.5 436.5,-56.5"/>
<text text-anchor="middle" x="457" y="-63.5" font-family="Helvetica,sans-Serif" font-size="10.00" fill="#000000">string</text>
</g>
<!-- Node3&#45;&gt;Node4 -->
<g id="edge5" class="edge">
<title>Node3&#45;&gt;Node4</title>
<path fill="none" stroke="#191970" d="M372.3324,-229.5762C415.434,-222.9404 488.1452,-208.9138 504,-188 509.37,-180.9165 505.9042,-176.6825 504,-168 497.18,-136.9027 479.9397,-103.9795 468.3461,-84.2103"/>
<polygon fill="#191970" stroke="#191970" points="471.3352,-82.3894 463.1786,-75.6277 465.3383,-86.0001 471.3352,-82.3894"/>
</g>
<!-- Node3&#45;&gt;Node5 -->
<g id="edge6" class="edge">
<title>Node3&#45;&gt;Node5</title>
<path fill="none" stroke="#191970" d="M307.9929,-228.765C278.0502,-222.7044 233.0988,-210.5295 200,-188 140.6742,-147.6184 61.9007,-111.8236 107,-56 129.5006,-28.1489 234.8259,-16.3756 288.8528,-12.1011"/>
<polygon fill="#191970" stroke="#191970" points="289.2248,-15.5832 298.9345,-11.3437 288.7003,-8.6028 289.2248,-15.5832"/>
</g>
<!-- Node6 -->
<g id="node7" class="node">
<title>Node6</title>
<polygon fill="none" stroke="#bfbfbf" points="314,-168.5 314,-187.5 366,-187.5 366,-168.5 314,-168.5"/>
<text text-anchor="middle" x="340" y="-175.5" font-family="Helvetica,sans-Serif" font-size="10.00" fill="#000000">sstream</text>
</g>
<!-- Node3&#45;&gt;Node6 -->
<g id="edge8" class="edge">
<title>Node3&#45;&gt;Node6</title>
<path fill="none" stroke="#191970" d="M340,-224.2455C340,-216.9382 340,-206.6944 340,-197.7046"/>
<polygon fill="#191970" stroke="#191970" points="343.5001,-197.6426 340,-187.6427 336.5001,-197.6427 343.5001,-197.6426"/>
</g>
<!-- Node3&#45;&gt;Node7 -->
<g id="edge9" class="edge">
<title>Node3&#45;&gt;Node7</title>
<path fill="none" stroke="#191970" d="M348.9385,-224.4888C356.8081,-215.6516 368.0652,-201.8105 375,-188 382.3572,-173.3484 387.2924,-155.3957 390.2849,-141.9148"/>
<polygon fill="#191970" stroke="#191970" points="393.7761,-142.312 392.3522,-131.8133 386.9182,-140.9084 393.7761,-142.312"/>
</g>
<!-- Node8 -->
<g id="node9" class="node">
<title>Node8</title>
<g id="a_node9"><a xlink:href="ListInterface_8h.html" target="_top" xlink:title="ListInterface.h">
<polygon fill="none" stroke="#000000" points="281.5,-56.5 281.5,-75.5 360.5,-75.5 360.5,-56.5 281.5,-56.5"/>
<text text-anchor="middle" x="321" y="-63.5" font-family="Helvetica,sans-Serif" font-size="10.00" fill="#000000">ListInterface.h</text>
</a>
</g>
</g>
<!-- Node3&#45;&gt;Node8 -->
<g id="edge20" class="edge">
<title>Node3&#45;&gt;Node8</title>
<path fill="none" stroke="#191970" d="M307.7566,-227.2861C286.4918,-221.0038 260.2091,-209.2702 247,-188 223.4483,-150.0756 269.7253,-105.0885 299.1902,-81.7755"/>
<polygon fill="#191970" stroke="#191970" points="301.5301,-84.392 307.341,-75.5328 297.2738,-78.8346 301.5301,-84.392"/>
</g>
<!-- Node3&#45;&gt;Node9 -->
<g id="edge17" class="edge">
<title>Node3&#45;&gt;Node9</title>
<path fill="none" stroke="#191970" d="M372.081,-232.9408C446.4198,-229.9702 628.0082,-219.5964 679,-188 716.6503,-164.6705 736.9601,-113.7874 745.694,-85.6639"/>
<polygon fill="#191970" stroke="#191970" points="749.1352,-86.365 748.5737,-75.7851 742.4149,-84.406 749.1352,-86.365"/>
</g>
<!-- Node3&#45;&gt;Node10 -->
<g id="edge18" class="edge">
<title>Node3&#45;&gt;Node10</title>
<path fill="none" stroke="#191970" d="M360.4568,-224.3733C379.4738,-215.4241 408.0175,-201.9917 429.4976,-191.8835"/>
<polygon fill="#191970" stroke="#191970" points="431.2522,-194.926 438.8101,-187.5011 428.2716,-188.5923 431.2522,-194.926"/>
</g>
<!-- Node11 -->
<g id="node12" class="node">
<title>Node11</title>
<polygon fill="none" stroke="#bfbfbf" points="256,-168.5 256,-187.5 296,-187.5 296,-168.5 256,-168.5"/>
<text text-anchor="middle" x="276" y="-175.5" font-family="Helvetica,sans-Serif" font-size="10.00" fill="#000000">limits</text>
</g>
<!-- Node3&#45;&gt;Node11 -->
<g id="edge21" class="edge">
<title>Node3&#45;&gt;Node11</title>
<path fill="none" stroke="#191970" d="M328.8521,-224.2455C319.4913,-216.0549 305.9142,-204.1749 294.8651,-194.5069"/>
<polygon fill="#191970" stroke="#191970" points="296.8508,-191.5937 287.0202,-187.6427 292.2412,-196.8618 296.8508,-191.5937"/>
</g>
<!-- Node7&#45;&gt;Node1 -->
<g id="edge14" class="edge">
<title>Node7&#45;&gt;Node1</title>
<path fill="none" stroke="#191970" d="M359.3519,-114.3309C311.1888,-103.6702 224.4841,-84.4787 176.0877,-73.7664"/>
<polygon fill="#191970" stroke="#191970" points="176.6036,-70.296 166.0835,-71.5521 175.0908,-77.1306 176.6036,-70.296"/>
</g>
<!-- Node7&#45;&gt;Node2 -->
<g id="edge13" class="edge">
<title>Node7&#45;&gt;Node2</title>
<path fill="none" stroke="#191970" d="M365.8074,-112.3733C338.4079,-103.0173 296.6583,-88.7614 266.6846,-78.5264"/>
<polygon fill="#191970" stroke="#191970" points="267.6033,-75.1418 257.0088,-75.2225 265.3412,-81.7662 267.6033,-75.1418"/>
</g>
<!-- Node7&#45;&gt;Node4 -->
<g id="edge15" class="edge">
<title>Node7&#45;&gt;Node4</title>
<path fill="none" stroke="#191970" d="M404.9738,-112.2455C414.1882,-104.0549 427.5532,-92.1749 438.4297,-82.5069"/>
<polygon fill="#191970" stroke="#191970" points="441.0032,-84.9023 446.152,-75.6427 436.3526,-79.6704 441.0032,-84.9023"/>
</g>
<!-- Node7&#45;&gt;Node5 -->
<g id="edge16" class="edge">
<title>Node7&#45;&gt;Node5</title>
<path fill="none" stroke="#191970" d="M391.8027,-112.4186C388.4186,-98.9933 381.0322,-74.1907 369,-56 361.6126,-44.8314 351.0628,-34.3383 341.7341,-26.2023"/>
<polygon fill="#191970" stroke="#191970" points="343.8771,-23.4319 333.9607,-19.7015 339.3864,-28.8016 343.8771,-23.4319"/>
</g>
<!-- Node7&#45;&gt;Node8 -->
<g id="edge10" class="edge">
<title>Node7&#45;&gt;Node8</title>
<path fill="none" stroke="#191970" d="M381.2844,-112.2455C370.398,-103.8943 354.5117,-91.7076 341.78,-81.9408"/>
<polygon fill="#191970" stroke="#191970" points="343.6346,-78.9523 333.5699,-75.6427 339.3739,-84.5063 343.6346,-78.9523"/>
</g>
<!-- Node7&#45;&gt;Node9 -->
<g id="edge12" class="edge">
<title>Node7&#45;&gt;Node9</title>
<path fill="none" stroke="#191970" d="M428.555,-116.5796C496.8225,-105.871 648.2656,-82.1152 716.4936,-71.4128"/>
<polygon fill="#191970" stroke="#191970" points="717.367,-74.8187 726.7038,-69.8112 716.2822,-67.9032 717.367,-74.8187"/>
</g>
<!-- Node8&#45;&gt;Node5 -->
<g id="edge11" class="edge">
<title>Node8&#45;&gt;Node5</title>
<path fill="none" stroke="#191970" d="M321,-56.2455C321,-48.9382 321,-38.6944 321,-29.7046"/>
<polygon fill="#191970" stroke="#191970" points="324.5001,-29.6426 321,-19.6427 317.5001,-29.6427 324.5001,-29.6426"/>
</g>
<!-- Node10&#45;&gt;Node7 -->
<g id="edge19" class="edge">
<title>Node10&#45;&gt;Node7</title>
<path fill="none" stroke="#191970" d="M447.6779,-168.2455C438.0777,-159.9746 424.1108,-147.9416 412.8305,-138.2232"/>
<polygon fill="#191970" stroke="#191970" points="415.053,-135.5182 405.1924,-131.6427 410.484,-140.8214 415.053,-135.5182"/>
</g>
<!-- Node12&#45;&gt;Node1 -->
<g id="edge28" class="edge">
<title>Node12&#45;&gt;Node1</title>
<path fill="none" stroke="#191970" d="M589.9767,-175.6149C527.5393,-171.1771 403.5772,-159.4779 302,-132 253.6388,-118.9177 200.3685,-95.0866 168.8458,-79.9239"/>
<polygon fill="#191970" stroke="#191970" points="170.3141,-76.746 159.7907,-75.518 167.2514,-83.0405 170.3141,-76.746"/>
</g>
<!-- Node12&#45;&gt;Node2 -->
<g id="edge29" class="edge">
<title>Node12&#45;&gt;Node2</title>
<path fill="none" stroke="#191970" d="M589.5376,-175.6657C534.1363,-171.5102 432.1769,-160.4084 350,-132 313.6961,-119.4498 275.4226,-96.4551 252.1236,-81.1965"/>
<polygon fill="#191970" stroke="#191970" points="253.9399,-78.201 243.6765,-75.5716 250.06,-84.0274 253.9399,-78.201"/>
</g>
<!-- Node12&#45;&gt;Node4 -->
<g id="edge30" class="edge">
<title>Node12&#45;&gt;Node4</title>
<path fill="none" stroke="#191970" d="M597.0801,-168.4526C573.9692,-160.805 543.0245,-148.6043 519,-132 499.7219,-118.6762 481.8734,-98.4917 470.3257,-83.9535"/>
<polygon fill="#191970" stroke="#191970" points="472.8721,-81.524 463.9935,-75.7429 467.329,-85.799 472.8721,-81.524"/>
</g>
<!-- Node12&#45;&gt;Node5 -->
<g id="edge31" class="edge">
<title>Node12&#45;&gt;Node5</title>
<path fill="none" stroke="#191970" d="M609.9464,-168.4643C593.472,-160.1117 570.0022,-146.9877 552,-132 517.6189,-103.3761 523.8131,-79.9072 486,-56 444.6556,-29.8601 388.3235,-18.3208 353.3316,-13.4111"/>
<polygon fill="#191970" stroke="#191970" points="353.5656,-9.9121 343.1973,-12.0914 352.6616,-16.8535 353.5656,-9.9121"/>
</g>
<!-- Node12&#45;&gt;Node7 -->
<g id="edge25" class="edge">
<title>Node12&#45;&gt;Node7</title>
<path fill="none" stroke="#191970" d="M589.9658,-168.5004C547.9964,-158.5415 482.2093,-142.931 438.6031,-132.5838"/>
<polygon fill="#191970" stroke="#191970" points="439.3764,-129.1702 428.8385,-130.2668 437.7602,-135.981 439.3764,-129.1702"/>
</g>
<!-- Node12&#45;&gt;Node9 -->
<g id="edge26" class="edge">
<title>Node12&#45;&gt;Node9</title>
<path fill="none" stroke="#191970" d="M645.5066,-168.3429C658.9675,-159.6218 678.6523,-146.0369 694,-132 710.313,-117.0803 726.5606,-97.7087 737.5103,-83.8174"/>
<polygon fill="#191970" stroke="#191970" points="740.5323,-85.6315 743.8883,-75.5822 734.998,-81.3453 740.5323,-85.6315"/>
</g>
<!-- Node13 -->
<g id="node14" class="node">
<title>Node13</title>
<polygon fill="none" stroke="#bfbfbf" points="561.5,-112.5 561.5,-131.5 610.5,-131.5 610.5,-112.5 561.5,-112.5"/>
<text text-anchor="middle" x="586" y="-119.5" font-family="Helvetica,sans-Serif" font-size="10.00" fill="#000000">cassert</text>
</g>
<!-- Node12&#45;&gt;Node13 -->
<g id="edge27" class="edge">
<title>Node12&#45;&gt;Node13</title>
<path fill="none" stroke="#191970" d="M622.3358,-168.2455C616.1527,-160.3761 607.2937,-149.101 599.8711,-139.6542"/>
<polygon fill="#191970" stroke="#191970" points="602.5068,-137.3435 593.5764,-131.6427 597.0025,-141.6683 602.5068,-137.3435"/>
</g>
<!-- Node14 -->
<g id="node15" class="node">
<title>Node14</title>
<polygon fill="none" stroke="#bfbfbf" points="629,-112.5 629,-131.5 685,-131.5 685,-112.5 629,-112.5"/>
<text text-anchor="middle" x="657" y="-119.5" font-family="Helvetica,sans-Serif" font-size="10.00" fill="#000000">algorithm</text>
</g>
<!-- Node12&#45;&gt;Node14 -->
<g id="edge32" class="edge">
<title>Node12&#45;&gt;Node14</title>
<path fill="none" stroke="#191970" d="M634.703,-168.2455C638.3424,-160.6973 643.4924,-150.0158 647.9262,-140.8197"/>
<polygon fill="#191970" stroke="#191970" points="651.1605,-142.1704 652.3509,-131.6427 644.8551,-139.1303 651.1605,-142.1704"/>
</g>
<!-- Node15&#45;&gt;Node9 -->
<g id="edge35" class="edge">
<title>Node15&#45;&gt;Node9</title>
<path fill="none" stroke="#191970" d="M729.3758,-224.4558C741.8589,-216.5215 757.7182,-203.9621 765,-188 780.4076,-154.2258 768.3785,-109.9544 759.1081,-85.091"/>
<polygon fill="#191970" stroke="#191970" points="762.3291,-83.7186 755.392,-75.7106 755.8212,-86.2968 762.3291,-83.7186"/>
</g>
</g>
</svg>
        <g id="navigator" transform="translate(0 0)" fill="#404254">
                <rect fill="#f2f5e9" fill-opacity="0.5" stroke="#606060" stroke-width=".5" x="0" y="0" width="60" height="60"/>
                <use id="zoomplus" xlink:href="#zoomPlus" x="17" y="9" onmousedown="handleZoom(evt,'in')"/>
                <use id="zoomminus" xlink:href="#zoomMin" x="42" y="9" onmousedown="handleZoom(evt,'out')"/>
                <use id="reset" xlink:href="#resetDef" x="30" y="36" onmousedown="handleReset()"/>
                <g id="arrowUp" xlink:href="#dirArrow" transform="translate(30 24)" onmousedown="handlePan(0,-1)">
                  <use xlink:href="#rim" fill="#404040">
                        <set attributeName="fill" to="#808080" begin="arrowUp.mouseover" end="arrowUp.mouseout"/>
                  </use>
                  <path fill="none" stroke="white" stroke-width="1.5" d="M0,-3.0v7 M-2.5,-0.5L0,-3.0L2.5,-0.5"/>
                </g>
                <g id="arrowRight" xlink:href="#dirArrow" transform="rotate(90) translate(36 -43)" onmousedown="handlePan(1,0)">
                  <use xlink:href="#rim" fill="#404040">
                        <set attributeName="fill" to="#808080" begin="arrowRight.mouseover" end="arrowRight.mouseout"/>
                  </use>
                  <path fill="none" stroke="white" stroke-width="1.5" d="M0,-3.0v7 M-2.5,-0.5L0,-3.0L2.5,-0.5"/>
                </g>
                <g id="arrowDown" xlink:href="#dirArrow" transform="rotate(180) translate(-30 -48)" onmousedown="handlePan(0,1)">
                  <use xlink:href="#rim" fill="#404040">
                        <set attributeName="fill" to="#808080" begin="arrowDown.mouseover" end="arrowDown.mouseout"/>
                  </use>
                  <path fill="none" stroke="white" stroke-width="1.5" d="M0,-3.0v7 M-2.5,-0.5L0,-3.0L2.5,-0.5"/>
                </g>
                <g id="arrowLeft" xlink:href="#dirArrow" transform="rotate(270) translate(-36 17)" onmousedown="handlePan(-1,0)">
                  <use xlink:href="#rim" fill="#404040">
                        <set attributeName="fill" to="#808080" begin="arrowLeft.mouseover" end="arrowLeft.mouseout"/>
                  </use>
                  <path fill="none" stroke="white" stroke-width="1.5" d="M0,-3.0v7 M-2.5,-0.5L0,-3.0L2.5,-0.5"/>
                </g>
        </g>
        <svg viewBox="0 0 15 15" width="100%" height="30px" preserveAspectRatio="xMaxYMin meet">
         <g id="arrow_out" transform="scale(0.3 0.3)">
          <a xlink:href="TestDocument_8cpp__incl_org.svg" target="_base">
           <rect id="button" ry="5" rx="5" y="6" x="6" height="38" width="38"
                fill="#f2f5e9" fill-opacity="0.5" stroke="#606060" stroke-width="1.0"/>
           <path id="arrow"
             d="M 11.500037,31.436501 C 11.940474,20.09759 22.043105,11.32322 32.158766,21.979434 L 37.068811,17.246167 C 37.068811,17.246167 37.088388,32 37.088388,32 L 22.160133,31.978069 C 22.160133,31.978069 26.997745,27.140456 26.997745,27.140456 C 18.528582,18.264221 13.291696,25.230495 11.500037,31.436501 z"
             style="fill:#404040;"/>
          </a>
         </g>
        </svg>
</svg>
